<svg width="548" height="301" viewBox="0 0 548 301" fill="none" xmlns="http://www.w3.org/2000/svg">
<path d="M100.071 63.8911C94.1839 -9.38837 172.111 -5.17838 219.182 6.89027C277.773 21.9314 320.517 38.7842 381.227 25.4398C429.77 14.7617 485.126 -8.71222 524.343 38.1973C556.481 76.6614 541.839 129.095 508.471 161.601C478.795 190.51 434.782 197.055 405.702 227.609C387.026 247.179 371.762 270.525 349.534 286.421C325.504 303.593 293.709 303.478 266.836 291.945C220.095 271.89 209.26 222.723 183.327 183.863C158.155 146.254 103.941 111.898 100.071 63.8911Z" fill="#CBE0FF"/>
<path d="M288.99 74.36C291.032 74.9841 297.244 72.4169 299.584 69.9632C301.924 67.5095 296.662 58.8008 292.748 60.4035C287.501 62.5311 285.388 73.2537 288.99 74.36Z" fill="black"/>
<path d="M285.133 107.095L284.509 108.514L283.913 109.748L282.651 112.159C281.8 113.747 280.893 115.308 279.957 116.854C278.046 119.989 275.948 123.006 273.674 125.888C271.265 128.97 268.573 131.819 265.633 134.398C263.957 135.84 262.164 137.14 260.273 138.285C258.338 139.446 256.301 140.428 254.189 141.221C246.57 143.817 238.419 144.446 230.491 143.05C226.866 142.492 223.291 141.648 219.799 140.526C218.083 139.958 216.381 139.363 214.707 138.682C213.885 138.341 213.048 137.987 212.226 137.604C211.403 137.221 210.637 136.852 209.687 136.37L213.176 126.796L215.388 127.094L217.714 127.378C219.274 127.548 220.82 127.718 222.38 127.803C225.408 128.041 228.448 128.102 231.484 127.988C234.344 127.89 237.191 127.548 239.993 126.966C241.277 126.689 242.546 126.343 243.794 125.931C244.938 125.541 246.052 125.067 247.126 124.513C249.121 123.507 250.884 122.096 252.303 120.371C254.139 118.315 255.827 116.13 257.351 113.833C258.982 111.407 260.585 108.826 262.102 106.188C262.896 104.883 263.634 103.535 264.385 102.202C264.712 101.529 265.279 101.003 265.975 100.727C266.67 100.451 267.444 100.446 268.143 100.713L285.133 107.095Z" fill="#4078CD"/>
<path d="M285.133 107.095L284.509 108.514L283.913 109.748L282.651 112.159C281.8 113.747 280.893 115.308 279.957 116.854C278.046 119.989 275.948 123.006 273.674 125.888C271.265 128.97 268.573 131.819 265.633 134.398C263.957 135.84 262.164 137.14 260.273 138.285C258.338 139.446 256.301 140.428 254.189 141.221C246.57 143.817 238.419 144.446 230.491 143.05C226.866 142.492 223.291 141.648 219.799 140.526C218.083 139.958 216.381 139.363 214.707 138.682C213.885 138.341 213.048 137.987 212.226 137.604C211.403 137.221 210.637 136.852 209.687 136.37L213.176 126.796L215.388 127.094L217.714 127.378C219.274 127.548 220.82 127.718 222.38 127.803C225.408 128.041 228.448 128.102 231.484 127.988C234.344 127.89 237.191 127.548 239.993 126.966C241.277 126.689 242.546 126.343 243.794 125.931C244.938 125.541 246.052 125.067 247.126 124.513C249.121 123.507 250.884 122.096 252.303 120.371C254.139 118.315 255.827 116.13 257.351 113.833C258.982 111.407 260.585 108.826 262.102 106.188C262.896 104.883 263.634 103.535 264.385 102.202C264.712 101.529 265.279 101.003 265.975 100.727C266.67 100.451 267.444 100.446 268.143 100.713L285.133 107.095Z" fill="black"/>
<path opacity="0.1" d="M260.612 121.109C254.489 127.548 249.592 135.051 246.161 143.249C248.913 142.847 251.616 142.167 254.231 141.221C256.331 140.43 258.353 139.447 260.272 138.285C262.154 137.135 263.938 135.83 265.604 134.384C268.541 131.802 271.233 128.953 273.645 125.874C274.496 124.796 275.319 123.718 276.099 122.612C271.249 120.073 264.3 117.549 260.612 121.109Z" fill="black"/>
<path d="M264.668 101.677C259.421 110.187 250.359 128.938 247.735 160.042L292.719 174.297C294.818 168.623 298.973 141.519 312.658 116.144C313.347 114.89 313.518 113.416 313.134 112.037C312.749 110.659 311.841 109.486 310.602 108.769C307.606 107.011 304.465 105.512 301.214 104.287C294.948 101.941 288.568 99.9151 282.097 98.2166C279.559 97.6351 277.034 97.1954 274.85 96.8833C272.871 96.6005 270.851 96.9038 269.042 97.7557C267.232 98.6077 265.712 99.971 264.668 101.677Z" fill="#4078CD"/>
<path d="M264.668 101.677C259.421 110.187 250.359 128.938 247.735 160.042L292.719 174.297C294.818 168.623 298.973 141.519 312.658 116.144C313.347 114.89 313.518 113.416 313.134 112.037C312.749 110.659 311.841 109.486 310.602 108.769C307.606 107.011 304.465 105.512 301.214 104.287C294.948 101.941 288.568 99.9151 282.097 98.2166C279.559 97.6351 277.034 97.1954 274.85 96.8833C272.871 96.6005 270.851 96.9038 269.042 97.7557C267.232 98.6077 265.712 99.971 264.668 101.677Z" fill="black"/>
<path opacity="0.1" d="M267.873 134.285L266.583 121.08C266.555 120.852 266.583 120.621 266.665 120.406C266.746 120.191 266.879 119.999 267.051 119.846L277.999 109.776C278.19 109.565 278.441 109.417 278.718 109.351C278.995 109.284 279.285 109.303 279.551 109.404C279.818 109.505 280.047 109.684 280.211 109.917C280.374 110.15 280.463 110.427 280.467 110.712L281.757 123.931C281.778 124.159 281.747 124.388 281.666 124.602C281.585 124.816 281.456 125.009 281.289 125.165L270.341 135.235C270.149 135.447 269.897 135.596 269.619 135.661C269.34 135.727 269.049 135.708 268.782 135.605C268.515 135.502 268.286 135.321 268.123 135.086C267.961 134.85 267.874 134.571 267.873 134.285Z" fill="#4078CD"/>
<path opacity="0.1" d="M302.675 122.328C301.044 125.747 301.1 133.959 302.462 139.575C303.781 135.803 305.298 131.888 306.986 127.945L302.675 122.328Z" fill="black"/>
<path d="M302.958 84.019C300.121 89.0967 295.98 98.6846 298.618 103.507C298.618 103.507 296.165 106.712 287.925 103.791C282.068 101.706 281.785 98.1173 281.785 98.1173C288.28 98.5995 289.542 94.0608 289.826 89.5221L302.958 84.019Z" fill="#FFC3BD"/>
<path opacity="0.2" d="M297.611 86.2883L289.84 89.5647C289.787 90.6243 289.644 91.6776 289.415 92.7134C291.825 93.1105 295.796 91.5929 296.803 89.2527C297.25 88.3218 297.524 87.3173 297.611 86.2883Z" fill="black"/>
<path d="M307.639 77.6506C304.051 84.4729 302.292 88.6428 297.13 90.6568C289.373 93.6637 282.155 86.5578 283.63 78.7995C284.963 71.8212 290.607 61.7794 298.733 62.134C300.523 62.1942 302.269 62.7107 303.804 63.6345C305.339 64.5583 306.613 65.8588 307.505 67.4127C308.397 68.9667 308.877 70.7226 308.901 72.5143C308.924 74.3059 308.49 76.0738 307.639 77.6506Z" fill="#FFC3BD"/>
<path d="M303.752 81.7071C302.631 79.9058 303.525 73.197 305.312 70.3604C307.099 67.5237 316.841 70.3604 316.302 74.6154C315.579 80.1469 305.751 84.9125 303.752 81.7071Z" fill="black"/>
<path d="M306.859 70.1902C291.259 66.0628 296.634 58.1201 290.678 58.4321C284.722 58.7442 286.948 61.9354 286.948 61.9354C286.948 61.9354 281.502 58.7158 288.848 56.0635C296.194 53.4112 293.656 56.489 298.166 56.9145C303.072 57.3826 308.093 53.936 309.936 58.4321C311.78 62.9283 312.588 65.9351 315.311 66.4741C320.317 67.467 316.729 77.8209 312.744 74.6863L306.859 70.1902Z" fill="black"/>
<path d="M307.737 84.714C307.141 85.2516 306.444 85.6661 305.687 85.9339C304.93 86.2016 304.128 86.3172 303.326 86.2741C301.185 86.1465 300.816 84.0615 301.993 82.4021C303.171 80.7426 305.44 79.1825 307.312 80.1327C307.717 80.3442 308.064 80.654 308.319 81.0339C308.574 81.4138 308.73 81.8517 308.772 82.3074C308.815 82.7631 308.742 83.2222 308.561 83.6426C308.38 84.0631 308.097 84.4314 307.737 84.714Z" fill="#FFC3BD"/>
<path d="M296.109 74.8281C295.853 75.3954 295.343 75.7217 294.974 75.5515C294.605 75.3813 294.506 74.7856 294.761 74.2182C295.017 73.6509 295.527 73.3105 295.91 73.4807C296.293 73.6509 296.378 74.2466 296.109 74.8281Z" fill="black"/>
<path d="M289.657 71.9206C289.401 72.4879 288.891 72.8142 288.522 72.644C288.153 72.4737 288.054 71.878 288.309 71.3107C288.565 70.7433 289.075 70.4029 289.444 70.5731C289.813 70.7433 289.912 71.3391 289.657 71.9206Z" fill="black"/>
<path d="M291.585 73.1261C290.119 74.5645 288.463 75.7956 286.664 76.7854C286.929 77.2382 287.29 77.6277 287.721 77.9266C288.152 78.2254 288.643 78.4266 289.16 78.5158L291.585 73.1261Z" fill="#ED847E"/>
<path d="M293.428 81.2674C292.286 81.4948 291.102 81.3455 290.053 80.8419C290.007 80.8231 289.972 80.7871 289.953 80.7419C289.934 80.6967 289.934 80.6459 289.953 80.6008C289.977 80.5571 290.017 80.5242 290.064 80.5084C290.112 80.4926 290.163 80.4952 290.209 80.5157C290.912 80.8497 291.684 81.0134 292.463 80.9937C293.241 80.974 294.004 80.7714 294.69 80.4022C294.731 80.3759 294.781 80.3671 294.829 80.3777C294.877 80.3883 294.919 80.4176 294.945 80.4589C294.971 80.5003 294.98 80.5505 294.97 80.5983C294.959 80.6462 294.93 80.6879 294.888 80.7142C294.437 80.9819 293.943 81.1691 293.428 81.2674Z" fill="black"/>
<path d="M299.214 73.6367C299.122 73.6541 299.027 73.636 298.948 73.5859C298.869 73.5359 298.812 73.4577 298.788 73.3672C298.695 72.914 298.498 72.4885 298.213 72.1243C297.927 71.76 297.561 71.4669 297.143 71.2681C297.098 71.2524 297.056 71.2275 297.021 71.1952C296.985 71.1628 296.956 71.1235 296.937 71.0797C296.917 71.0359 296.906 70.9886 296.905 70.9405C296.904 70.8924 296.913 70.8446 296.931 70.8C296.966 70.7106 297.034 70.6384 297.121 70.5986C297.209 70.5589 297.308 70.5548 297.399 70.5873C297.935 70.82 298.407 71.1788 298.775 71.6332C299.143 72.0875 299.396 72.624 299.512 73.197C299.522 73.2445 299.523 73.2936 299.514 73.3415C299.506 73.3894 299.488 73.435 299.461 73.4759C299.435 73.5168 299.401 73.552 299.361 73.5796C299.321 73.6072 299.276 73.6266 299.228 73.6367H299.214Z" fill="black"/>
<path d="M288.054 68.4456C287.99 68.4599 287.923 68.4569 287.861 68.4369C287.799 68.417 287.743 68.3808 287.699 68.3322C287.632 68.2611 287.595 68.1673 287.595 68.0698C287.595 67.9722 287.632 67.8784 287.699 67.8074C288.14 67.4238 288.666 67.1505 289.233 67.0099C289.8 66.8693 290.392 66.8656 290.961 66.9989C291.055 67.0271 291.134 67.0915 291.18 67.178C291.227 67.2644 291.237 67.3658 291.209 67.4599C291.181 67.5539 291.117 67.6329 291.03 67.6794C290.944 67.726 290.842 67.7363 290.748 67.7081C290.298 67.6088 289.831 67.6174 289.385 67.7333C288.939 67.8492 288.526 68.069 288.181 68.3747C288.145 68.4086 288.102 68.4329 288.054 68.4456Z" fill="black"/>
<path d="M293.301 177.417C263.448 171.743 245.424 162.17 244.672 161.815L247.579 156.369C247.75 156.468 265.604 165.843 294.478 171.403L293.301 177.417Z" fill="black"/>
<path d="M213.686 139.249L218.295 126.725C218.295 126.725 202.582 119.633 198.654 125.378C194.725 131.122 200.795 134.852 213.686 139.249Z" fill="#4078CD"/>
<path opacity="0.3" d="M213.686 139.249L218.295 126.725C218.295 126.725 202.582 119.633 198.654 125.378C194.725 131.122 200.795 134.852 213.686 139.249Z" fill="#4078CD"/>
<path d="M211.658 126.754L217.728 127.959C217.728 127.959 214.438 117.237 211.786 117.605C209.134 117.974 209.219 121.236 211.658 126.754Z" fill="#4078CD"/>
<path opacity="0.3" d="M211.658 126.754L217.728 127.959C217.728 127.959 214.438 117.237 211.786 117.605C209.134 117.974 209.219 121.236 211.658 126.754Z" fill="#4078CD"/>
<path opacity="0.2" d="M291.755 160.95C291.635 160.889 291.54 160.787 291.488 160.662C291.436 160.537 291.43 160.398 291.471 160.269C291.473 160.191 291.492 160.114 291.528 160.045C291.564 159.975 291.615 159.915 291.678 159.869C291.741 159.822 291.813 159.791 291.89 159.777C291.967 159.763 292.046 159.767 292.121 159.788C292.196 159.809 292.266 159.847 292.324 159.9C292.382 159.952 292.427 160.017 292.456 160.089C292.485 160.162 292.497 160.24 292.491 160.318C292.485 160.396 292.461 160.471 292.422 160.539C292.379 160.676 292.288 160.794 292.166 160.869C292.043 160.945 291.897 160.973 291.755 160.95Z" fill="black"/>
<path opacity="0.2" d="M291.017 163.545C290.948 163.516 290.885 163.473 290.832 163.419C290.78 163.366 290.738 163.302 290.711 163.232C290.683 163.162 290.669 163.087 290.671 163.012C290.672 162.937 290.689 162.863 290.719 162.794C290.744 162.644 290.826 162.51 290.947 162.42C291.069 162.33 291.221 162.291 291.371 162.311C291.509 162.374 291.617 162.487 291.672 162.627C291.728 162.767 291.727 162.924 291.669 163.063C291.642 163.211 291.559 163.343 291.438 163.433C291.317 163.522 291.166 163.562 291.017 163.545Z" fill="black"/>
<path opacity="0.2" d="M290.281 166.141C290.146 166.073 290.038 165.961 289.977 165.823C289.916 165.685 289.904 165.53 289.944 165.384C289.984 165.239 290.074 165.111 290.197 165.024C290.321 164.937 290.47 164.896 290.621 164.907C290.756 164.975 290.863 165.087 290.925 165.225C290.986 165.363 290.998 165.518 290.958 165.664C290.918 165.809 290.828 165.937 290.705 166.024C290.581 166.111 290.431 166.152 290.281 166.141Z" fill="black"/>
<path opacity="0.2" d="M292.79 162.652C292.653 162.59 292.545 162.476 292.489 162.336C292.434 162.196 292.435 162.04 292.493 161.9C292.503 161.825 292.528 161.753 292.567 161.688C292.605 161.623 292.657 161.567 292.717 161.522C292.778 161.477 292.847 161.444 292.921 161.427C292.994 161.409 293.07 161.406 293.145 161.418C293.282 161.48 293.39 161.593 293.446 161.734C293.501 161.874 293.5 162.03 293.443 162.17C293.415 162.318 293.332 162.45 293.211 162.539C293.09 162.628 292.94 162.669 292.79 162.652Z" fill="black"/>
<path opacity="0.2" d="M292.053 165.233C291.915 165.171 291.807 165.059 291.749 164.919C291.691 164.779 291.688 164.623 291.741 164.482C291.84 164.141 292.138 163.928 292.393 164.013C292.531 164.076 292.64 164.188 292.698 164.328C292.756 164.467 292.758 164.624 292.705 164.765C292.606 165.106 292.308 165.318 292.053 165.233Z" fill="black"/>
<path opacity="0.2" d="M291.315 167.829C291.178 167.766 291.069 167.654 291.011 167.514C290.953 167.375 290.95 167.219 291.003 167.077C291.102 166.737 291.4 166.524 291.656 166.609C291.725 166.638 291.788 166.681 291.84 166.735C291.893 166.789 291.934 166.853 291.962 166.922C291.99 166.992 292.003 167.067 292.002 167.142C292 167.218 291.984 167.292 291.953 167.361C291.868 167.687 291.57 167.914 291.315 167.829Z" fill="black"/>
<path d="M220.564 126.385L219.273 126.172C218.569 126.045 217.889 125.806 217.26 125.463C217.117 125.382 216.959 125.332 216.796 125.316C216.633 125.3 216.469 125.319 216.313 125.371C216.158 125.423 216.015 125.508 215.895 125.619C215.775 125.73 215.679 125.865 215.615 126.016L210.793 137.576C210.693 137.831 210.687 138.113 210.775 138.373C210.863 138.632 211.041 138.852 211.275 138.994L212.963 140.015C213.377 140.256 213.814 140.456 214.267 140.611L217.26 141.561C217.41 141.601 217.566 141.61 217.72 141.588C217.874 141.566 218.021 141.513 218.154 141.432C218.286 141.351 218.401 141.244 218.491 141.118C218.581 140.991 218.645 140.848 218.678 140.696L221.514 127.761C221.543 127.608 221.541 127.451 221.509 127.299C221.476 127.147 221.414 127.003 221.326 126.875C221.237 126.747 221.125 126.638 220.994 126.554C220.863 126.469 220.717 126.412 220.564 126.385Z" fill="black"/>
<path d="M520.404 173.729L84.2943 111.124L43.962 137.363L38.0483 178.523L509.981 246.277L520.404 173.729Z" fill="black"/>
<path opacity="0.6" d="M520.404 173.729L84.2943 111.124L43.962 137.363L38.0483 178.523L509.981 246.277L520.404 173.729Z" fill="black"/>
<path d="M177.466 103.408C189.152 94.8976 230.406 63.8076 241.553 65.3961L246.658 66.1337C248.658 66.4173 243.978 67.9917 235.937 73.892C225.84 81.3099 196.555 103.862 192.74 110.939C180.629 109.209 177.466 103.408 177.466 103.408Z" fill="black"/>
<path d="M190.456 103.252C211.303 102.457 217.855 102.273 221.499 106.783C225.144 111.294 225.527 123.123 225.527 123.123L188.655 109.705L190.456 103.252Z" fill="black"/>
<path d="M365.725 122.896C340.113 107.535 331.831 102.472 324.23 106.514C310.36 113.875 319.834 131.292 319.834 131.292L363.499 133.023L365.725 122.896Z" fill="black"/>
<path d="M232.107 127.973C231.538 128.102 230.941 128.001 230.445 127.693C229.949 127.386 229.593 126.895 229.455 126.328L222.634 97.011C222.502 96.4412 222.601 95.8423 222.909 95.3453C223.218 94.8483 223.71 94.4936 224.279 94.3587C224.848 94.2306 225.445 94.3312 225.941 94.6389C226.437 94.9466 226.793 95.4368 226.931 96.004L233.752 125.321C233.82 125.603 233.83 125.896 233.784 126.183C233.738 126.469 233.635 126.743 233.482 126.99C233.329 127.236 233.129 127.45 232.893 127.619C232.657 127.788 232.39 127.908 232.107 127.973Z" fill="black"/>
<path d="M544.682 178.155C538.669 186.849 536.429 218.989 530.501 230.562C524.573 242.136 520.574 253.327 494.352 249.568C494.044 249.526 493.753 249.404 493.507 249.215C493.26 249.026 493.068 248.776 492.947 248.49C492.827 248.203 492.784 247.891 492.821 247.582C492.859 247.274 492.976 246.981 493.161 246.731C497.913 240.116 500.88 232.388 501.776 224.292C502.672 216.196 501.465 208.005 498.274 200.511C495.082 193.017 490.013 186.472 483.555 181.509C477.098 176.545 469.47 173.33 461.408 172.174C453.346 171.018 445.122 171.959 437.53 174.908C429.938 177.857 423.234 182.713 418.066 189.008C412.897 195.304 409.438 202.825 408.023 210.846C406.608 218.868 407.284 227.119 409.986 234.803C410.086 235.094 410.109 235.404 410.055 235.706C410 236.008 409.869 236.292 409.675 236.529C409.48 236.766 409.228 236.95 408.943 237.062C408.657 237.175 408.348 237.212 408.043 237.172L139.375 198.607C139.065 198.569 138.77 198.449 138.522 198.261C138.273 198.073 138.078 197.822 137.957 197.534C137.836 197.246 137.793 196.931 137.833 196.622C137.873 196.312 137.994 196.018 138.183 195.77C142.936 189.156 145.904 181.428 146.801 173.332C147.698 165.236 146.493 157.046 143.302 149.552C140.112 142.057 135.044 135.512 128.587 130.548C122.13 125.583 114.503 122.367 106.442 121.209C98.3801 120.052 90.1563 120.992 82.564 123.939C74.9716 126.887 68.2671 131.742 63.0974 138.036C57.9278 144.33 54.4675 151.85 53.0507 159.871C51.6338 167.892 52.3082 176.143 55.0087 183.828C55.1115 184.117 55.138 184.428 55.0858 184.73C55.0336 185.033 54.9044 185.317 54.7106 185.555C54.5168 185.793 54.2649 185.977 53.9793 186.089C53.6938 186.202 53.384 186.239 53.08 186.197L37.4804 183.97C36.5204 183.821 35.5725 183.603 34.6441 183.317L14.7899 177.133C11.7673 176.193 9.03525 174.495 6.85345 172.202C4.67165 169.908 3.11258 167.094 2.32439 164.028C-0.597 152.681 -2.80932 135.15 8.93297 128.895C82.1096 89.9761 147.16 95.2524 194.214 104.557C266.668 132.158 364.932 136.228 376.277 107.124C411.22 112.145 520.843 157.971 534.812 160.468C548.781 162.964 550.709 169.46 544.682 178.155Z" fill="#4078CD"/>
<path opacity="0.1" d="M103.921 107.464C137.545 99.5073 187.776 108.017 215.132 123.307C206.028 123.109 143.856 108.755 103.921 107.464Z" fill="#4078CD"/>
<path opacity="0.1" d="M371.937 122.612C369.036 125.278 365.619 127.32 361.897 128.612C361.536 128.731 361.228 128.973 361.027 129.295C360.825 129.617 360.743 130 360.793 130.377C360.844 130.753 361.024 131.1 361.303 131.358C361.582 131.616 361.943 131.768 362.322 131.789C380.46 134.03 417.346 137.987 442.717 138.398C442.996 138.445 443.281 138.433 443.555 138.364C443.829 138.296 444.085 138.171 444.309 137.999C444.533 137.827 444.719 137.61 444.855 137.363C444.991 137.115 445.075 136.843 445.102 136.561C445.128 136.28 445.096 135.997 445.008 135.728C444.92 135.46 444.778 135.213 444.59 135.002C444.402 134.791 444.173 134.621 443.917 134.502C443.66 134.384 443.382 134.32 443.1 134.313C416.652 129.888 379.964 123.307 373.54 122.158C373.256 122.1 372.962 122.111 372.683 122.19C372.405 122.269 372.149 122.414 371.937 122.612Z" fill="#4078CD"/>
<path d="M135.167 183.788C144.13 164.2 135.519 141.054 115.934 132.09C96.3482 123.127 73.2055 131.739 64.2428 151.327C55.2801 170.915 63.8914 194.061 83.4767 203.025C103.062 211.988 126.205 203.376 135.167 183.788Z" fill="black"/>
<path d="M490.128 234.763C499.091 215.175 490.479 192.029 470.894 183.065C451.309 174.101 428.166 182.713 419.203 202.301C410.24 221.889 418.852 245.035 438.437 253.999C458.022 262.963 481.165 254.35 490.128 234.763Z" fill="black"/>
<path d="M110.746 197.471C127.279 191.368 135.734 173.016 129.631 156.482C123.529 139.948 105.18 131.491 88.6479 137.595C72.1156 143.698 63.6605 162.049 69.7629 178.584C75.8652 195.118 94.2142 203.574 110.746 197.471Z" fill="#F6F6F6"/>
<path d="M134.482 165.233L116.174 164.808C115.298 164.789 114.445 164.524 113.713 164.043C112.981 163.563 112.399 162.886 112.033 162.089C111.668 161.293 111.534 160.41 111.646 159.542C111.759 158.673 112.114 157.854 112.671 157.177L124.13 143.249L122.711 141.348L109.466 154C108.832 154.605 108.04 155.019 107.182 155.196C106.324 155.373 105.433 155.305 104.612 155C103.79 154.696 103.07 154.167 102.534 153.474C101.999 152.78 101.668 151.95 101.581 151.078L99.7799 133.122L97.4399 132.782L97.0145 151.092C96.9958 151.968 96.7309 152.821 96.2503 153.553C95.7696 154.286 95.0925 154.868 94.2965 155.234C93.5005 155.599 92.6177 155.733 91.7491 155.62C90.8804 155.507 90.0611 155.152 89.3848 154.596L75.416 143.178L73.5299 144.596L86.1656 157.844C86.769 158.471 87.1849 159.254 87.3664 160.106C87.5479 160.957 87.4877 161.842 87.1927 162.661C86.8977 163.48 86.3795 164.2 85.6968 164.74C85.0141 165.279 84.194 165.617 83.3293 165.716L65.3755 167.517L65.0352 169.857L83.3435 170.283C84.2192 170.301 85.072 170.566 85.8042 171.047C86.5364 171.528 87.1186 172.205 87.4841 173.001C87.8495 173.797 87.9835 174.68 87.8708 175.549C87.758 176.417 87.403 177.237 86.8463 177.913L75.5011 191.884L76.9193 193.77L90.1648 181.133C90.7992 180.528 91.5905 180.114 92.4486 179.937C93.3068 179.76 94.1974 179.828 95.0191 180.133C95.8407 180.437 96.5604 180.966 97.0962 181.659C97.632 182.353 97.9623 183.183 98.0497 184.055L99.8508 202.011L102.191 202.337L102.616 184.041C102.632 183.163 102.895 182.309 103.375 181.574C103.854 180.84 104.531 180.256 105.328 179.888C106.124 179.521 107.008 179.386 107.878 179.498C108.748 179.61 109.569 179.966 110.246 180.523L124.215 191.955L126.101 190.537L113.281 177.289C112.677 176.656 112.262 175.865 112.085 175.008C111.907 174.151 111.974 173.261 112.277 172.44C112.579 171.619 113.106 170.899 113.798 170.362C114.489 169.825 115.317 169.493 116.188 169.403L134.142 167.616L134.482 165.233Z" fill="black"/>
<path opacity="0.9" d="M106.616 168.51C106.419 169.876 105.822 171.153 104.9 172.18C103.978 173.207 102.772 173.937 101.435 174.278C100.098 174.62 98.6899 174.557 97.3885 174.098C96.0871 173.638 94.9511 172.804 94.124 171.699C93.297 170.594 92.8161 169.269 92.7422 167.891C92.6683 166.512 93.0046 165.143 93.7087 163.956C94.4129 162.769 95.4531 161.818 96.6979 161.222C97.9427 160.626 99.3362 160.413 100.702 160.609C101.609 160.74 102.481 161.048 103.27 161.515C104.058 161.983 104.746 162.601 105.295 163.335C105.844 164.068 106.243 164.903 106.47 165.791C106.697 166.679 106.746 167.603 106.616 168.51Z" fill="#4078CD"/>
<path d="M467.203 247.83C483.402 240.89 490.908 222.13 483.968 205.929C477.029 189.729 458.272 182.221 442.073 189.162C425.875 196.102 418.368 214.862 425.308 231.063C432.247 247.264 451.004 254.771 467.203 247.83Z" fill="#F6F6F6"/>
<path d="M489.417 216.18L471.123 215.755C470.246 215.739 469.392 215.476 468.657 214.996C467.923 214.516 467.339 213.839 466.972 213.043C466.605 212.246 466.469 211.362 466.582 210.492C466.694 209.622 467.049 208.801 467.606 208.124L479.037 194.153L477.618 192.267L464.373 204.904C463.741 205.51 462.952 205.925 462.095 206.103C461.239 206.282 460.349 206.215 459.528 205.912C458.708 205.609 457.989 205.081 457.453 204.389C456.918 203.696 456.589 202.868 456.502 201.997L454.701 184.04L452.361 183.7L451.936 202.011C451.917 202.887 451.652 203.74 451.172 204.472C450.691 205.204 450.014 205.787 449.218 206.152C448.422 206.518 447.539 206.652 446.67 206.539C445.802 206.426 444.982 206.071 444.306 205.514L430.337 194.167L428.437 195.586L441.087 208.833C441.691 209.468 442.105 210.259 442.282 211.117C442.459 211.976 442.392 212.866 442.087 213.688C441.783 214.51 441.254 215.23 440.56 215.765C439.867 216.301 439.037 216.632 438.165 216.719L420.212 218.421L419.871 220.761L438.18 221.187C439.054 221.208 439.905 221.475 440.636 221.955C441.367 222.436 441.948 223.112 442.315 223.907C442.681 224.701 442.817 225.582 442.708 226.45C442.599 227.318 442.248 228.139 441.697 228.818L430.266 242.788L431.685 244.675L444.93 232.037C445.562 231.432 446.351 231.016 447.208 230.838C448.064 230.66 448.954 230.726 449.775 231.029C450.595 231.332 451.314 231.86 451.849 232.553C452.385 233.245 452.714 234.074 452.801 234.945L454.559 252.915L456.899 253.256L457.325 234.945C457.343 234.069 457.608 233.216 458.089 232.484C458.57 231.751 459.247 231.169 460.043 230.804C460.839 230.438 461.721 230.304 462.59 230.417C463.459 230.53 464.278 230.885 464.954 231.441L478.923 242.873L480.823 241.455L468.174 228.208C467.569 227.573 467.155 226.782 466.978 225.924C466.801 225.065 466.869 224.175 467.173 223.353C467.478 222.531 468.007 221.811 468.7 221.275C469.393 220.74 470.223 220.409 471.095 220.322L489.049 218.52L489.417 216.18Z" fill="black"/>
<path opacity="0.9" d="M461.564 219.471C461.37 220.841 460.775 222.122 459.852 223.154C458.93 224.185 457.722 224.919 456.382 225.264C455.042 225.609 453.63 225.548 452.325 225.089C451.02 224.631 449.88 223.796 449.049 222.689C448.219 221.582 447.735 220.254 447.66 218.872C447.585 217.491 447.921 216.118 448.626 214.927C449.331 213.737 450.374 212.783 451.622 212.185C452.87 211.587 454.267 211.374 455.636 211.571C456.544 211.699 457.418 212.006 458.208 212.473C458.997 212.939 459.687 213.557 460.238 214.291C460.789 215.025 461.189 215.86 461.417 216.749C461.644 217.638 461.694 218.563 461.564 219.471Z" fill="#4078CD"/>
<path opacity="0.5" d="M75.8821 103.636C71.5709 104.581 67.2077 105.673 62.7925 106.912C54.0385 109.353 45.4225 112.265 36.9822 115.635C30.8463 118.055 24.6348 120.793 18.3477 123.847C29.8772 126.599 53.9291 121.876 65.799 118.33C76.35 115.195 76.2508 106.685 75.8821 103.636Z" fill="white"/>
<path opacity="0.4" d="M331.704 218.038H331.605L170.928 194.976C170.764 194.95 170.613 194.868 170.502 194.744C170.391 194.62 170.326 194.461 170.318 194.295C170.318 193.827 169.354 146.965 195.405 110.982C195.46 110.906 195.529 110.842 195.609 110.794C195.689 110.745 195.777 110.713 195.869 110.698C195.961 110.684 196.056 110.687 196.146 110.709C196.237 110.731 196.323 110.771 196.398 110.826C196.473 110.881 196.537 110.95 196.586 111.03C196.635 111.109 196.667 111.198 196.682 111.29C196.696 111.382 196.692 111.476 196.67 111.567C196.648 111.658 196.609 111.743 196.554 111.819C172.375 145.22 171.708 188.111 171.736 193.657L331.463 216.591C351.473 199.103 385.097 143.916 383.665 140.001C380.829 136.597 385.891 120.882 386.501 119.095C386.531 119.006 386.578 118.924 386.639 118.854C386.701 118.784 386.775 118.726 386.859 118.685C386.943 118.643 387.033 118.619 387.127 118.612C387.22 118.606 387.313 118.618 387.402 118.648C387.49 118.678 387.572 118.725 387.642 118.786C387.713 118.847 387.77 118.922 387.812 119.006C387.853 119.089 387.878 119.18 387.884 119.273C387.89 119.367 387.878 119.46 387.848 119.548C385.721 125.988 383.013 136.994 384.814 139.15C388.316 143.405 350.594 202.025 332.172 217.925C332.034 218.016 331.868 218.056 331.704 218.038Z" fill="black"/>
<path d="M212.905 108.67L202.34 109.407C201.625 109.459 200.908 109.366 200.231 109.132C199.554 108.899 198.931 108.53 198.401 108.049C197.87 107.567 197.443 106.983 197.145 106.332C196.847 105.68 196.684 104.975 196.667 104.259V102.032C196.648 101.273 196.792 100.519 197.089 99.8207C197.387 99.1224 197.831 98.4964 198.392 97.9851C198.953 97.4739 199.618 97.0893 200.34 96.8576C201.063 96.6259 201.827 96.5524 202.581 96.6422L213.203 97.8904C214.523 98.0466 215.74 98.6814 216.623 99.6747C217.506 100.668 217.995 101.951 217.996 103.28C217.988 104.656 217.458 105.978 216.513 106.979C215.568 107.979 214.278 108.584 212.905 108.67Z" fill="#4078CD"/>
<path opacity="0.3" d="M11.7124 146.965C15.8414 148.203 20.0687 149.086 24.3481 149.603C26.7732 149.83 29.0422 152.44 29.6236 155.674C30.2051 158.908 31.0418 162.978 31.6658 166.354C32.4741 170.368 30.3753 173.658 27.3121 173.19C22.3202 172.438 15.4847 170.935 12.4498 168.155C12.0586 167.775 11.7546 167.314 11.5588 166.805C11.3629 166.295 11.2798 165.75 11.3153 165.205C11.5974 160.161 11.0464 155.106 9.68442 150.241C9.10298 148.27 10.1808 146.525 11.7124 146.965Z" fill="white"/>
<path opacity="0.5" d="M532.457 191.104C534.673 192.168 537.034 192.9 539.463 193.274C541.009 186.182 542.725 180.14 544.923 177.218C540.454 178.633 536.136 180.485 532.032 182.75C531.29 183.188 530.683 183.821 530.275 184.58C529.868 185.339 529.675 186.195 529.719 187.055C529.763 187.916 530.041 188.748 530.524 189.461C531.007 190.175 531.675 190.743 532.457 191.104Z" fill="white"/>
<path d="M311.822 110.187L312.517 110.84L313.325 111.833L314.842 113.847C315.807 115.265 316.771 116.57 317.679 117.974C318.586 119.378 319.451 120.811 320.288 122.229C321.125 123.647 321.905 125.179 322.685 126.697C324.244 129.795 325.585 132.999 326.698 136.285C326.982 137.122 327.237 137.987 327.478 138.866L327.861 140.171L327.946 140.512L328.059 140.98L328.286 141.916C328.751 144.115 328.947 146.363 328.868 148.61C328.694 152.292 328.099 155.942 327.095 159.489C326.205 162.725 325.115 165.904 323.833 169.006C322.6 172.041 321.196 174.963 319.721 177.814C318.228 180.69 318.947 177.204 317.17 179.913L307.924 175.658C309.342 169.985 308.404 170.339 309.538 164.694C310.049 161.858 310.545 159.021 310.786 156.34C310.928 154.922 310.999 153.688 311.056 152.426C311.088 151.266 311.045 150.105 310.928 148.951C310.842 148.123 310.657 147.309 310.375 146.525L310.304 146.341V146.256L310.205 146.043L309.808 145.178C309.553 144.611 309.297 144.029 308.971 143.448C307.822 141.136 306.504 138.781 305.043 136.441C304.32 135.278 303.625 134.101 302.802 132.952C301.98 131.803 301.271 130.612 300.462 129.463C299.654 128.314 298.86 127.151 298.051 126.016L295.711 122.754L311.822 110.187Z" fill="#4078CD"/>
<path d="M311.822 110.187L312.517 110.84L313.325 111.833L314.842 113.847C315.807 115.265 316.771 116.57 317.679 117.974C318.586 119.378 319.451 120.811 320.288 122.229C321.125 123.647 321.905 125.179 322.685 126.697C324.244 129.795 325.585 132.999 326.698 136.285C326.982 137.122 327.237 137.987 327.478 138.866L327.861 140.171L327.946 140.512L328.059 140.98L328.286 141.916C328.751 144.115 328.947 146.363 328.868 148.61C328.694 152.292 328.099 155.942 327.095 159.489C326.205 162.725 325.115 165.904 323.833 169.006C322.6 172.041 321.196 174.963 319.721 177.814C318.228 180.69 318.947 177.99 317.17 180.699L307.924 176.444C309.342 170.77 308.404 170.339 309.538 164.694C310.049 161.858 310.545 159.021 310.786 156.34C310.928 154.922 310.999 153.688 311.056 152.426C311.088 151.266 311.045 150.105 310.928 148.951C310.842 148.123 310.657 147.309 310.375 146.525L310.304 146.341V146.256L310.205 146.043L309.808 145.178C309.553 144.611 309.297 144.029 308.971 143.448C307.822 141.136 306.504 138.781 305.043 136.441C304.32 135.278 303.625 134.101 302.802 132.952C301.98 131.803 301.271 130.612 300.462 129.463C299.654 128.314 298.86 127.151 298.051 126.016L295.711 122.754L311.822 110.187Z" fill="black"/>
<path d="M316.794 180.064L309.463 174.32C309.463 174.32 304.427 189.583 307.676 194.034C310.924 198.485 313.494 192.728 316.794 180.064Z" fill="#FFC3BD"/>
<path d="M310.059 179.413L308.768 175.891C308.768 175.891 301.231 184.673 302.54 185.59C303.848 186.507 306.488 184.278 310.059 179.413Z" fill="#FFC3BD"/>
<path d="M307.171 171.701L306.859 172.977C306.686 173.675 306.393 174.337 305.994 174.935C305.902 175.07 305.84 175.224 305.812 175.386C305.784 175.547 305.792 175.713 305.833 175.871C305.875 176.03 305.95 176.178 306.054 176.305C306.157 176.432 306.286 176.535 306.433 176.608L317.566 182.282C317.807 182.396 318.08 182.424 318.338 182.359C318.597 182.294 318.825 182.142 318.984 181.927L320.133 180.31C320.412 179.92 320.641 179.496 320.813 179.048L322.005 176.211C322.067 176.061 322.096 175.9 322.092 175.737C322.087 175.575 322.047 175.415 321.976 175.269C321.905 175.123 321.804 174.994 321.679 174.89C321.555 174.786 321.409 174.709 321.253 174.665L308.575 170.907C308.283 170.832 307.974 170.873 307.713 171.021C307.451 171.169 307.257 171.413 307.171 171.701Z" fill="black"/>
</svg>
