<svg width="361" height="356" viewBox="0 0 361 356" fill="none" xmlns="http://www.w3.org/2000/svg">
<path d="M345.636 47.9872C349.953 117.687 268.841 192.902 210.371 212.536C154.027 231.487 41.359 224.428 35.5994 142.294C33.4361 111.441 50.6248 77.7836 76.0969 61.7027C117.054 35.8705 149.16 70.3415 189.531 75.8857C221.61 80.2893 246.452 65.4518 270.518 45.1918C290.563 28.3349 342.391 -4.30371 345.636 47.9872Z" fill="#CBE0FF"/>
<path d="M103.679 179.996C122.744 160.221 122.744 128.16 103.679 108.386C84.6152 88.6111 53.7061 88.6111 34.6418 108.386C15.5776 128.16 15.5776 160.221 34.6418 179.996C53.7061 199.771 84.6152 199.771 103.679 179.996Z" fill="#4078CD"/>
<path opacity="0.4" d="M103.679 179.996C122.744 160.221 122.744 128.16 103.679 108.386C84.6152 88.6111 53.7061 88.6111 34.6418 108.386C15.5776 128.16 15.5776 160.221 34.6418 179.996C53.7061 199.771 84.6152 199.771 103.679 179.996Z" fill="#061219"/>
<path opacity="0.2" d="M109.573 151.341C113.38 128.192 98.3742 106.224 76.0566 102.276C53.739 98.327 32.561 113.892 28.7542 137.041C24.9474 160.191 39.9533 182.158 62.2709 186.107C84.5886 190.055 105.767 174.49 109.573 151.341Z" fill="#061219"/>
<path d="M111.533 148.263C113.054 125.719 96.6684 106.165 74.9345 104.587C53.2005 103.008 34.3483 120.005 32.827 142.549C31.3056 165.092 47.6911 184.647 69.4251 186.225C91.159 187.803 110.011 170.807 111.533 148.263Z" fill="#4078CD"/>
<path opacity="0.4" d="M111.533 148.263C113.054 125.719 96.6684 106.165 74.9345 104.587C53.2005 103.008 34.3483 120.005 32.827 142.549C31.3056 165.092 47.6911 184.647 69.4251 186.225C91.159 187.803 110.011 170.807 111.533 148.263Z" fill="#061219"/>
<path d="M77.1985 131.955C77.6956 133.81 79.6025 134.911 81.4576 134.414C83.3127 133.917 84.4137 132.01 83.9166 130.155C82.9199 126.435 80.0374 123.373 76.0082 121.756C73.2561 120.652 70.1289 120.259 66.9521 120.587L65.9801 116.959C65.483 115.104 63.5761 114.003 61.721 114.5C59.8659 114.997 58.765 116.904 59.262 118.759L60.234 122.387C57.3186 123.691 54.8067 125.595 52.9759 127.928C50.2951 131.343 49.3294 135.435 50.3262 139.155C51.3229 142.875 54.2053 145.936 58.2346 147.553C60.9867 148.658 64.1139 149.051 67.2907 148.723L70.8555 162.027C66.7325 162.118 63.2111 160.37 62.4446 157.509C61.9475 155.654 60.0406 154.553 58.1855 155.05C56.3304 155.547 55.2294 157.454 55.7265 159.309C56.7233 163.029 59.6056 166.09 63.6349 167.708C66.387 168.812 69.5142 169.205 72.6911 168.877L73.6721 172.538C74.1691 174.394 76.0761 175.495 77.9312 174.997C79.7863 174.5 80.8872 172.593 80.3902 170.738L79.4092 167.077C82.3245 165.773 84.8364 163.869 86.6672 161.536C89.348 158.121 90.3137 154.029 89.317 150.309C88.3202 146.589 85.4377 143.528 81.4085 141.91C78.6564 140.806 75.5292 140.413 72.3524 140.741L68.7876 127.437C72.9107 127.346 76.432 129.094 77.1985 131.955ZM57.0443 137.355C56.2777 134.494 58.4533 131.22 62.0695 129.237L65.4551 141.872C61.3322 141.964 57.8108 140.216 57.0443 137.355ZM82.5989 152.109C83.3654 154.97 81.1898 158.244 77.5736 160.227L74.188 147.592C78.311 147.5 81.8323 149.248 82.5989 152.109Z" fill="white"/>
<path d="M173.333 103.923C185.478 89.0147 183.673 66.7168 169.301 54.1187C154.929 41.5206 133.432 43.393 121.286 58.3008C109.141 73.2087 110.946 95.5066 125.318 108.105C139.69 120.703 161.187 118.83 173.333 103.923Z" fill="#4078CD"/>
<path opacity="0.4" d="M173.333 103.923C185.478 89.0147 183.673 66.7168 169.301 54.1187C154.929 41.5206 133.432 43.393 121.286 58.3008C109.141 73.2087 110.946 95.5066 125.318 108.105C139.69 120.703 161.187 118.83 173.333 103.923Z" fill="#061219"/>
<path opacity="0.2" d="M169.361 99.9926C179.428 87.361 177.717 68.6559 165.539 58.2136C153.362 47.7713 135.329 49.546 125.261 62.1776C115.194 74.8092 116.905 93.5142 129.083 103.957C141.261 114.399 159.294 112.624 169.361 99.9926Z" fill="#061219"/>
<path d="M170.225 100.303C179.436 87.8023 177.133 69.9239 165.081 60.3701C153.03 50.8163 135.794 53.205 126.583 65.7053C117.373 78.2057 119.676 96.0841 131.727 105.638C143.778 115.192 161.014 112.803 170.225 100.303Z" fill="#4078CD"/>
<path opacity="0.4" d="M170.225 100.303C179.436 87.8023 177.133 69.9239 165.081 60.3701C153.03 50.8163 135.794 53.205 126.583 65.7053C117.373 78.2057 119.676 96.0841 131.727 105.638C143.778 115.192 161.014 112.803 170.225 100.303Z" fill="#061219"/>
<path d="M155.929 76.1849C155.641 77.3168 156.325 78.4679 157.456 78.7559C158.588 79.044 159.739 78.3599 160.027 77.2281C160.605 74.9585 159.986 72.4775 158.33 70.4214C157.199 69.017 155.657 67.8787 153.874 67.1077L154.438 64.8947C154.726 63.7629 154.042 62.6117 152.91 62.3237C151.778 62.0356 150.627 62.7197 150.339 63.8515L149.776 66.0646C147.841 65.8896 145.943 66.1523 144.278 66.8451C141.84 67.8593 140.111 69.7427 139.533 72.0123C138.956 74.282 139.574 76.7628 141.231 78.819C142.362 80.2235 143.904 81.3618 145.686 82.1327L143.621 90.2495C141.406 89.0717 140.059 87.0973 140.503 85.3519C140.791 84.2201 140.107 83.069 138.975 82.7809C137.843 82.4929 136.692 83.1769 136.404 84.3087C135.826 86.5784 136.445 89.0592 138.101 91.1154C139.232 92.5199 140.774 93.6581 142.557 94.4291L141.988 96.6628C141.7 97.7946 142.384 98.9457 143.516 99.2338C144.648 99.5218 145.799 98.8378 146.087 97.7059L146.656 95.4722C148.59 95.6473 150.489 95.3846 152.153 94.6918C154.591 93.6776 156.32 91.7941 156.898 89.5245C157.476 87.2548 156.857 84.7739 155.201 82.7178C154.07 81.3134 152.528 80.1751 150.745 79.4041L152.811 71.2873C155.025 72.4653 156.373 74.4395 155.929 76.1849ZM143.632 73.0555C144.076 71.3101 146.204 70.2203 148.712 70.2441L146.75 77.953C144.536 76.7753 143.188 74.8009 143.632 73.0555ZM152.799 88.4813C152.355 90.2267 150.227 91.3166 147.719 91.2927L149.681 83.5838C151.895 84.7616 153.243 86.7359 152.799 88.4813Z" fill="white"/>
<g filter="url(#filter0_d)">
<path d="M64.3232 304.766V295.111C64.3232 294.863 64.1215 294.661 63.8726 294.661C63.6237 294.661 63.4219 294.863 63.4219 295.111V304.766C63.4219 305.014 63.6237 305.216 63.8726 305.216C64.1215 305.216 64.3232 305.014 64.3232 304.766Z" fill="#4078CD"/>
<path opacity="0.1" d="M64.3232 304.766V295.111C64.3232 294.863 64.1215 294.661 63.8726 294.661C63.6237 294.661 63.4219 294.863 63.4219 295.111V304.766C63.4219 305.014 63.6237 305.216 63.8726 305.216C64.1215 305.216 64.3232 305.014 64.3232 304.766Z" fill="#061219"/>
<path d="M313.04 148.315H80.1407C72.6488 148.315 66.5754 154.615 66.5754 162.386V303.795C66.5754 311.566 72.6488 317.866 80.1407 317.866H313.04C320.532 317.866 326.605 311.566 326.605 303.795V162.386C326.605 154.615 320.532 148.315 313.04 148.315Z" fill="#4078CD"/>
<path d="M313.04 148.315H80.1407L74.5764 148.315C70.1581 148.315 66.5754 151.897 66.5754 156.315V309.866C66.5754 314.284 70.156 317.866 74.5743 317.866H80.1407H318.605C323.023 317.866 326.605 314.285 326.605 309.867V303.795V156.315C326.605 151.897 323.024 148.315 318.606 148.315L313.04 148.315Z" fill="#4078CD"/>
<path d="M284.514 207.356C293.808 207.356 301.342 199.541 301.342 189.901C301.342 180.261 293.808 172.446 284.514 172.446C275.22 172.446 267.686 180.261 267.686 189.901C267.686 199.541 275.22 207.356 284.514 207.356Z" fill="black" fill-opacity="0.2"/>
<path d="M263.926 207.356C273.22 207.356 280.754 199.541 280.754 189.901C280.754 180.261 273.22 172.446 263.926 172.446C254.632 172.446 247.098 180.261 247.098 189.901C247.098 199.541 254.632 207.356 263.926 207.356Z" fill="black" fill-opacity="0.2"/>
<path d="M138.946 210H97.9064C94.6807 210 92.0625 212.609 92.0507 215.834L91.9479 244.02C91.9358 247.319 94.607 250 97.9064 250H138.759C142.165 250 144.926 247.239 144.926 243.833V215.98C144.926 212.677 142.249 210 138.946 210Z" fill="black" fill-opacity="0.2"/>
<path d="M176.207 174H102.645H95.56C93.6779 174 92.1321 175.488 92.0617 177.369C91.9876 179.352 93.575 181 95.5593 181L102.645 181H183.426C185.359 181 186.926 179.433 186.926 177.5C186.926 175.567 185.359 174 183.426 174L176.207 174Z" fill="black" fill-opacity="0.2"/>
<path d="M126.526 274H96.3267C93.9499 274 92.0176 275.916 91.998 278.293L91.9624 282.599C91.9424 285.024 93.9022 287 96.3267 287H128.922C130.029 287 130.926 286.103 130.926 284.996V278.4C130.926 275.97 128.956 274 126.526 274Z" fill="black" fill-opacity="0.2"/>
<path d="M183.526 274H153.327C150.95 274 149.018 275.916 148.998 278.293L148.962 282.599C148.942 285.024 150.902 287 153.327 287H185.922C187.029 287 187.926 286.103 187.926 284.996V278.4C187.926 275.97 185.956 274 183.526 274Z" fill="black" fill-opacity="0.2"/>
<path d="M240.526 274H210.327C207.95 274 206.018 275.916 205.998 278.293L205.962 282.599C205.942 285.024 207.902 287 210.327 287H242.922C244.029 287 244.926 286.103 244.926 284.996V278.4C244.926 275.97 242.956 274 240.526 274Z" fill="black" fill-opacity="0.2"/>
<path d="M297.526 274H267.327C264.95 274 263.018 275.916 262.998 278.293L262.962 282.599C262.942 285.024 264.902 287 267.327 287H299.922C301.029 287 301.926 286.103 301.926 284.996V278.4C301.926 275.97 299.956 274 297.526 274Z" fill="black" fill-opacity="0.2"/>
</g>
<g filter="url(#filter1_d)">
<path d="M235.346 86.9648C233.21 93.2195 230.839 99.2685 228.324 105.318C225.779 111.469 222.859 117.446 219.581 123.212C219.14 123.951 218.68 124.689 218.202 125.428L217.851 125.98L217.373 126.662C217.048 127.092 216.742 127.466 216.472 127.831C215.336 129.144 214.132 130.392 212.866 131.571C210.46 133.88 208.008 135.974 205.529 138.04C200.554 142.135 195.47 145.969 190.206 149.605L187.061 145.557L200.31 132.01C202.501 129.757 204.673 127.485 206.701 125.213C207.701 124.082 208.675 122.922 209.477 121.857C209.675 121.595 209.847 121.333 210 121.109L210.189 120.791L210.451 120.305C210.802 119.659 211.172 119.033 211.514 118.369C214.272 112.993 216.706 107.15 219.049 101.223C221.393 95.295 223.646 89.3208 225.809 83.3933L235.346 86.9648Z" fill="#FFC3BD"/>
<path d="M237.877 82.4583C239.923 88.6663 227.899 106.926 227.899 106.926L216.416 100.297C218.373 94.5996 220.685 89.0406 223.338 83.655C227.358 75.7642 235.633 75.6426 237.877 82.4583Z" fill="black"/>
<path opacity="0.7" d="M237.877 82.4583C239.923 88.6663 227.899 106.926 227.899 106.926L216.416 100.297C218.373 94.5996 220.685 89.0406 223.338 83.655C227.358 75.7642 235.633 75.6426 237.877 82.4583Z" fill="black"/>
<path opacity="0.31" d="M238.049 83.2343C235.471 81.9534 232.505 83.0286 229.378 88.152C226.25 93.2755 223.591 101.83 223.303 104.27L227.909 106.916C227.909 106.916 239.004 90.05 238.049 83.2343Z" fill="black"/>
<path d="M230.098 77.7088C230.098 77.7088 221.517 98.6421 227.701 137.62H263.439C263.881 131.926 261.357 104.168 267.549 77.3536C263.615 76.5591 259.634 76.0344 255.633 75.7829C250.575 75.4835 245.504 75.4835 240.446 75.7829C236.954 76.1506 233.495 76.7945 230.098 77.7088Z" fill="black"/>
<path opacity="0.7" d="M230.098 77.7088C230.098 77.7088 221.517 98.6421 227.701 137.62H263.439C263.881 131.926 261.357 104.168 267.549 77.3536C263.615 76.5591 259.634 76.0344 255.633 75.7829C250.575 75.4835 245.504 75.4835 240.446 75.7829C236.954 76.1506 233.495 76.7945 230.098 77.7088Z" fill="black"/>
<path d="M276.096 303.692L270.805 308.61L260.719 297.718L266.019 292.8L276.096 303.692Z" fill="#FFC3BD"/>
<path d="M257.951 313.92H251.272L250.406 297.877H257.085L257.951 313.92Z" fill="#FFC3BD"/>
<path d="M260.727 297.718L265.918 303.337L271.218 298.41L266.026 292.8L260.727 297.718Z" fill="#ED847E"/>
<path d="M257.085 297.877H250.406L250.857 306.151H257.536L257.085 297.877Z" fill="#ED847E"/>
<path d="M227.703 137.62C227.703 137.62 220.664 188.162 218.266 215.668C216.337 237.742 262.351 303.552 262.351 303.552L271.247 294.866C271.247 294.866 237.645 235.863 240.232 211.292C242.738 187.498 251.228 137.591 251.228 137.591L227.703 137.62Z" fill="black"/>
<path opacity="0.7" d="M227.703 137.62C227.703 137.62 220.664 188.162 218.266 215.668C216.337 237.742 262.351 303.552 262.351 303.552L271.247 294.866C271.247 294.866 237.645 235.863 240.232 211.292C242.738 187.498 251.228 137.591 251.228 137.591L227.703 137.62Z" fill="black"/>
<path opacity="0.2" d="M240.231 211.321C241.52 199.064 244.404 179.86 246.883 164.134C245.585 161.498 241.944 156.159 241.944 156.159C238.681 167.855 231.587 211.947 241.709 271.493C252.255 289.126 262.35 303.58 262.35 303.58L263.729 280.842C253.986 261.826 238.437 228.308 240.231 211.321Z" fill="black"/>
<path d="M240.409 137.62C240.409 137.62 239.779 190.584 240.86 210.432C242.041 232.16 247.99 304.16 247.99 304.16H260.23C260.23 304.16 259.861 233.918 260.582 212.414C261.384 189.041 263.457 137.62 263.457 137.62H240.409Z" fill="black"/>
<path opacity="0.7" d="M240.409 137.62C240.409 137.62 239.779 190.584 240.86 210.432C242.041 232.16 247.99 304.16 247.99 304.16H260.23C260.23 304.16 259.861 233.918 260.582 212.414C261.384 189.041 263.457 137.62 263.457 137.62H240.409Z" fill="black"/>
<path d="M250.92 313.126H258.428C258.554 313.121 258.676 313.167 258.769 313.254C258.861 313.342 258.917 313.463 258.924 313.593L259.294 319.754C259.295 319.915 259.266 320.075 259.207 320.224C259.149 320.373 259.063 320.509 258.954 320.623C258.845 320.738 258.716 320.829 258.573 320.892C258.43 320.954 258.277 320.987 258.122 320.988C255.508 320.942 254.255 320.783 250.956 320.783C248.928 320.783 240.293 321.007 237.49 321.007C234.687 321.007 234.786 318.128 235.949 317.866C241.276 316.697 247.883 315.061 249.776 313.546C250.102 313.279 250.504 313.131 250.92 313.126Z" fill="black"/>
<path d="M269.344 306.637L275.779 302.14C275.885 302.054 276.015 302.007 276.149 302.007C276.283 302.007 276.413 302.054 276.519 302.14L281.44 307.292C281.536 307.405 281.607 307.539 281.647 307.683C281.688 307.828 281.698 307.98 281.675 308.129C281.653 308.278 281.599 308.42 281.518 308.545C281.437 308.67 281.33 308.775 281.206 308.853C277.095 312.135 274.13 314.612 271.786 317.342C269.082 320.53 267.622 320.988 261.313 320.988C258.392 320.988 256.743 318.436 257.933 318.043C268.442 314.593 265.63 313.088 268.19 308.03C268.457 307.474 268.854 306.995 269.344 306.637Z" fill="black"/>
<path d="M188.575 144.688L181.607 144.94L183.068 150.606C183.068 150.606 190.35 151.279 190.999 148.998L188.575 144.688Z" fill="#FFC3BD"/>
<path d="M174.09 148.315L178.975 151.27L183.067 150.606L181.607 144.94L174.09 148.315Z" fill="#FFC3BD"/>
<path opacity="0.31" d="M259.565 83.9729C258.826 88.3858 259.809 98.9319 263.459 111.142C263.745 100.681 264.918 90.2659 266.965 80.0181V79.962C264.622 79.719 260.277 79.8311 259.565 83.9729Z" fill="black"/>
<path d="M254.723 58.0378C253.597 63.1052 252.326 72.3984 255.625 75.8016C255.625 75.8016 254.201 79.9995 245.115 79.9995C235.128 79.9995 240.437 75.8016 240.437 75.8016C245.935 74.4553 245.935 70.2574 245.115 66.3214L254.723 58.0378Z" fill="#FFC3BD"/>
<path d="M244.864 79.9808L242.16 82.9633L243.485 85.8429L245.639 85.9457L247.478 83.197L244.864 79.9808Z" fill="black"/>
<path d="M250.813 61.413L245.125 66.2933C245.33 67.215 245.456 68.1535 245.504 69.0981C247.595 68.7896 250.533 66.4149 250.831 64.1523C250.99 63.2461 250.984 62.3169 250.813 61.413Z" fill="#ED847E"/>
<path d="M242.874 40.8538C239.457 42.0598 236.726 51.4559 240.71 53.9429C244.694 56.4298 249.363 38.5632 242.874 40.8538Z" fill="black"/>
<path d="M256.861 52.7273C254.824 59.2719 253.959 63.2267 249.849 65.91C248.523 66.7939 246.989 67.285 245.414 67.3301C243.838 67.3752 242.281 66.9725 240.91 66.1658C239.539 65.359 238.407 64.1788 237.636 62.7527C236.865 61.3267 236.484 59.7092 236.536 58.0752C236.617 51.7831 239.934 42.0971 246.919 40.8817C248.425 40.5803 249.98 40.6944 251.43 41.2126C252.88 41.7308 254.173 42.635 255.179 43.8346C256.186 45.0341 256.871 46.487 257.167 48.0477C257.462 49.6084 257.356 51.2221 256.861 52.7273Z" fill="#FFC3BD"/>
<path d="M261.908 41.7886C259.871 46.8934 264.612 42.6301 263.386 48.6885C262.593 52.6339 255.725 62.0861 253.075 61.2259C250.425 60.3658 250.452 53.6623 253.832 48.9222C255.779 46.2015 251.569 43.1162 242.114 43.4435C232.659 43.7707 226.945 38.2546 239.509 34.2063C239.509 34.2063 234.877 37.0111 237.626 37.946C241.519 39.4513 265.991 31.5604 261.908 41.7886Z" fill="black"/>
<path d="M260.107 44.126C260.008 44.126 262.225 43.5557 263.406 39.4513C263.406 39.5167 263.018 45.5658 260.107 44.126Z" fill="black"/>
<path d="M242.411 35.1132C236.598 36.983 239.004 39.0866 241.411 39.6102L246.927 37.3664C238.545 38.5163 242.411 35.1132 242.411 35.1132Z" fill="black"/>
<path d="M257.978 60.721C256.769 61.9396 255.156 62.6321 253.471 62.6564C251.245 62.6564 250.767 60.4686 251.966 58.6361C253.029 56.9907 255.463 55.0086 257.428 55.8968C259.393 56.785 259.456 59.2158 257.978 60.721Z" fill="#FFC3BD"/>
<path d="M246.595 52.3627C246.46 52.905 246.072 53.2976 245.693 53.2042C245.315 53.1107 245.18 52.6151 245.315 52.0729C245.45 51.5306 245.838 51.1379 246.216 51.2408C246.595 51.3436 246.73 51.8204 246.595 52.3627Z" fill="black"/>
<path d="M240.644 51.0071C240.508 51.5493 240.121 51.942 239.742 51.8485C239.364 51.755 239.228 51.2688 239.364 50.7266C239.499 50.1843 239.877 49.7916 240.265 49.8851C240.653 49.9786 240.752 50.4648 240.644 51.0071Z" fill="black"/>
<path d="M242.467 51.7083C241.442 53.222 240.23 54.5893 238.861 55.7752C239.162 56.1222 239.533 56.3966 239.947 56.5791C240.361 56.7616 240.809 56.8478 241.259 56.8317L242.467 51.7083Z" fill="#ED847E"/>
<path d="M243.46 58.8044C243.086 58.804 242.715 58.7601 242.351 58.6735C242.311 58.6625 242.277 58.636 242.255 58.5995C242.233 58.563 242.225 58.5193 242.234 58.4772C242.244 58.4357 242.27 58.4 242.305 58.3774C242.34 58.3549 242.382 58.3471 242.423 58.3557C243.087 58.509 243.775 58.5045 244.437 58.3426C245.099 58.1807 245.717 57.8655 246.245 57.4207C246.275 57.3905 246.315 57.3735 246.357 57.3735C246.399 57.3735 246.44 57.3905 246.47 57.4207C246.499 57.4521 246.516 57.494 246.516 57.5376C246.516 57.5812 246.499 57.6231 246.47 57.6545C245.633 58.4018 244.564 58.8102 243.46 58.8044Z" fill="black"/>
<path d="M248.955 50.8014C248.893 50.8025 248.833 50.7843 248.781 50.7493C248.73 50.7143 248.69 50.664 248.666 50.605C248.518 50.23 248.285 49.8974 247.987 49.6354C247.689 49.3734 247.335 49.1897 246.954 49.0998C246.912 49.0941 246.872 49.0798 246.836 49.0578C246.8 49.0358 246.768 49.0066 246.743 48.9717C246.718 48.9369 246.699 48.8972 246.689 48.855C246.679 48.8128 246.677 48.7688 246.683 48.7258C246.697 48.6397 246.742 48.5624 246.809 48.5101C246.876 48.4577 246.96 48.4345 247.044 48.4453C247.529 48.548 247.984 48.7719 248.367 49.0978C248.75 49.4236 249.051 49.8415 249.243 50.3152C249.261 50.3543 249.271 50.3968 249.272 50.44C249.274 50.4832 249.266 50.5262 249.251 50.5665C249.236 50.6067 249.213 50.6433 249.184 50.6741C249.155 50.7048 249.12 50.7291 249.081 50.7453C249.043 50.7734 249 50.7925 248.955 50.8014Z" fill="black"/>
<path d="M238.636 48.3239C238.564 48.3233 238.494 48.2969 238.438 48.2491C238.373 48.1927 238.332 48.1122 238.324 48.0249C238.315 47.9376 238.34 47.8503 238.393 47.7817C238.711 47.3718 239.115 47.0432 239.574 46.8211C240.034 46.599 240.536 46.4894 241.043 46.5008C241.084 46.5043 241.125 46.5163 241.162 46.5361C241.199 46.5559 241.232 46.5831 241.258 46.6162C241.285 46.6492 241.306 46.6874 241.318 46.7286C241.331 46.7697 241.335 46.8131 241.331 46.8561C241.329 46.8996 241.318 46.9421 241.3 46.9811C241.281 47.0201 241.255 47.0547 241.223 47.0828C241.191 47.1108 241.153 47.1317 241.113 47.1442C241.073 47.1567 241.031 47.1604 240.989 47.1553C240.584 47.1508 240.183 47.2429 239.817 47.4245C239.451 47.606 239.131 47.8721 238.88 48.2024C238.851 48.2406 238.814 48.2714 238.772 48.2925C238.729 48.3135 238.683 48.3243 238.636 48.3239Z" fill="black"/>
<path d="M269.281 82.1311C269.984 83.2624 270.57 84.2628 271.165 85.3473C271.76 86.4318 272.328 87.4789 272.886 88.5635C273.986 90.7232 275.023 92.9296 275.969 95.1828C277.954 99.7956 279.445 104.621 280.413 109.571L280.503 110.048L280.548 110.282L280.611 110.675C280.688 111.198 280.727 111.726 280.728 112.255C280.719 113.14 280.629 114.023 280.458 114.891C280.153 116.323 279.712 117.719 279.142 119.061C278.13 121.412 276.924 123.667 275.536 125.802C272.915 129.861 269.933 133.658 266.631 137.143L262.71 133.88C264.892 129.934 267.064 125.839 268.885 121.828C269.78 119.91 270.545 117.93 271.174 115.901C271.431 115.055 271.606 114.184 271.697 113.302C271.728 113.013 271.728 112.721 271.697 112.432C271.697 112.348 271.697 112.273 271.643 112.264C271.589 112.255 271.643 112.264 271.643 112.217L271.589 112.03L271.48 111.647C270.911 109.585 270.234 107.556 269.452 105.57C268.659 103.541 267.776 101.522 266.847 99.5116C265.919 97.5015 264.919 95.5194 263.891 93.5373C263.386 92.5463 262.854 91.5646 262.323 90.5923L260.736 87.7875L269.281 82.1311Z" fill="#FFC3BD"/>
<path d="M248.558 314.322C248.108 314.369 247.658 314.239 247.296 313.958C247.194 313.841 247.123 313.699 247.088 313.545C247.053 313.391 247.057 313.231 247.098 313.079C247.118 312.977 247.162 312.881 247.227 312.801C247.291 312.721 247.374 312.659 247.468 312.621C248.288 312.284 250.172 313.631 250.388 313.78C250.415 313.797 250.435 313.823 250.447 313.853C250.458 313.884 250.46 313.917 250.451 313.948C250.446 313.98 250.433 314.009 250.412 314.033C250.391 314.056 250.364 314.072 250.334 314.079C249.752 314.225 249.157 314.306 248.558 314.322ZM247.774 312.892C247.711 312.881 247.647 312.881 247.585 312.892C247.539 312.909 247.499 312.939 247.468 312.979C247.438 313.018 247.419 313.066 247.414 313.116C247.381 313.214 247.374 313.319 247.393 313.421C247.411 313.523 247.456 313.618 247.522 313.696C247.828 314.014 248.702 314.051 249.901 313.808C249.264 313.35 248.538 313.04 247.774 312.901V312.892Z" fill="black"/>
<path d="M250.299 314.089H250.218C249.551 313.677 248.56 312.219 248.713 311.471C248.74 311.334 248.81 311.21 248.913 311.12C249.017 311.03 249.146 310.979 249.281 310.975C249.4 310.959 249.521 310.971 249.635 311.01C249.748 311.049 249.852 311.114 249.939 311.2C250.615 311.882 250.462 313.874 250.462 313.958C250.458 313.986 250.448 314.012 250.433 314.035C250.417 314.058 250.396 314.076 250.372 314.089H250.299ZM249.398 311.284H249.326C249.101 311.284 249.047 311.424 249.029 311.518C248.929 312.013 249.587 313.107 250.164 313.612C250.247 312.853 250.096 312.087 249.732 311.424C249.686 311.378 249.633 311.342 249.574 311.318C249.515 311.294 249.452 311.283 249.389 311.284H249.398Z" fill="black"/>
<path d="M265.017 310.396C264.851 310.401 264.685 310.369 264.531 310.302C264.412 310.253 264.306 310.174 264.223 310.073C264.14 309.972 264.082 309.852 264.053 309.722C264.03 309.644 264.027 309.56 264.044 309.48C264.062 309.4 264.099 309.325 264.152 309.264C264.756 308.507 267.92 308.731 268.28 308.76C268.314 308.761 268.346 308.773 268.372 308.795C268.398 308.817 268.417 308.847 268.424 308.881C268.431 308.915 268.428 308.95 268.415 308.982C268.402 309.013 268.38 309.04 268.352 309.059C267.346 309.747 266.209 310.203 265.017 310.396ZM266.928 309.031C265.82 309.031 264.657 309.143 264.395 309.47C264.38 309.495 264.372 309.524 264.372 309.554C264.372 309.584 264.38 309.613 264.395 309.638C264.411 309.719 264.445 309.795 264.495 309.859C264.546 309.922 264.61 309.972 264.684 310.003C265.189 310.218 266.324 309.863 267.757 309.068L266.928 309.031Z" fill="black"/>
<path d="M268.272 309.087C267.371 309.087 265.343 308.367 265.189 307.619C265.189 307.432 265.189 307.17 265.622 306.955C267.172 306.198 268.371 308.741 268.425 308.825C268.436 308.852 268.442 308.88 268.442 308.909C268.442 308.938 268.436 308.967 268.425 308.993C268.41 309.022 268.388 309.046 268.361 309.062C268.334 309.079 268.303 309.087 268.272 309.087ZM266.19 307.151C266.037 307.15 265.886 307.185 265.748 307.254C265.559 307.348 265.469 307.451 265.487 307.544C265.577 307.983 267.037 308.601 267.993 308.731C267.704 308.227 267.01 307.151 266.19 307.151Z" fill="black"/>
<path d="M264.495 132.365L257.879 131.159L261.295 139.153C261.295 139.153 267.361 139.153 267.091 135.862L264.495 132.365Z" fill="#FFC3BD"/>
<path d="M252.875 135.179L256.003 141.63L261.257 139.153L257.841 131.159L252.875 135.179Z" fill="#FFC3BD"/>
<path d="M271.787 294.371L261.81 304.113L258.592 300.532L270.012 289.743L271.787 294.371Z" fill="black"/>
<path opacity="0.6" d="M271.787 294.371L261.81 304.113L258.592 300.532L270.012 289.743L271.787 294.371Z" fill="black"/>
<path d="M260.718 304.16H247.496L246.766 299.335L261.358 300.093L260.718 304.16Z" fill="black"/>
<path opacity="0.6" d="M260.718 304.16H247.496L246.766 299.335L261.358 300.093L260.718 304.16Z" fill="black"/>
<path d="M267.549 77.3536C273.859 78.2885 280.321 101.026 280.321 101.026L266.801 108.805C266.801 108.805 261.312 97.9969 258.689 89.9752C255.94 81.5701 260.798 76.3251 267.549 77.3536Z" fill="black"/>
<path opacity="0.7" d="M267.549 77.3536C273.859 78.2885 280.321 101.026 280.321 101.026L266.801 108.805C266.801 108.805 261.312 97.9969 258.689 89.9752C255.94 81.5701 260.798 76.3251 267.549 77.3536Z" fill="black"/>
<path opacity="0.2" d="M244.864 79.9808L242.16 82.9633L243.485 85.8429L245.639 85.9457L247.478 83.197L244.864 79.9808Z" fill="black"/>
<path d="M243.718 85.3286C243.718 85.3286 238.589 107.365 238.391 111.946C238.111 118.248 240.653 129.009 240.653 129.009C240.653 129.009 244.258 120.061 244.997 111.75C245.737 103.438 245.187 89.9939 245.52 85.3286H243.718Z" fill="black"/>
<path opacity="0.2" d="M243.718 85.3286C243.718 85.3286 238.589 107.365 238.391 111.946C238.111 118.248 240.653 129.009 240.653 129.009C240.653 129.009 244.258 120.061 244.997 111.75C245.737 103.438 245.187 89.9939 245.52 85.3286H243.718Z" fill="black"/>
<path d="M244.863 79.9808C245.89 81.7055 246.485 83.6692 246.594 85.6933C246.594 85.6933 257.843 81.5795 257.311 75.5492C257.311 75.5492 255.716 74.5675 254.706 73.7728C254.706 73.7728 254.327 77.5687 244.863 79.9808Z" fill="black"/>
<path d="M244.863 79.9808C245.89 81.7055 246.485 83.6692 246.594 85.6933C246.594 85.6933 257.843 81.5795 257.311 75.5492C257.311 75.5492 255.716 74.5675 254.706 73.7728C254.706 73.7728 254.327 77.5687 244.863 79.9808Z" fill="black"/>
<path d="M244.863 79.9808C243.829 81.6135 243.085 83.4245 242.664 85.3286C242.664 85.3286 237.572 81.7572 239.104 75.8016C240.037 75.4116 240.998 75.0989 241.979 74.8667C241.979 74.8667 241.312 78.7186 244.863 79.9808Z" fill="black"/>
<path d="M244.863 79.9808C243.829 81.6135 243.085 83.4245 242.664 85.3286C242.664 85.3286 237.572 81.7572 239.104 75.8016C240.037 75.4116 240.998 75.0989 241.979 74.8667C241.979 74.8667 241.312 78.7186 244.863 79.9808Z" fill="black"/>
</g>
<defs>
<filter id="filter0_d" x="29.4219" y="114.315" width="331.183" height="237.551" filterUnits="userSpaceOnUse" color-interpolation-filters="sRGB">
<feFlood flood-opacity="0" result="BackgroundImageFix"/>
<feColorMatrix in="SourceAlpha" type="matrix" values="0 0 0 0 0 0 0 0 0 0 0 0 0 0 0 0 0 0 127 0"/>
<feOffset/>
<feGaussianBlur stdDeviation="17"/>
<feColorMatrix type="matrix" values="0 0 0 0 0.219608 0 0 0 0 0.709804 0 0 0 0 0.988235 0 0 0 0.34 0"/>
<feBlend mode="normal" in2="BackgroundImageFix" result="effect1_dropShadow"/>
<feBlend mode="normal" in="SourceGraphic" in2="effect1_dropShadow" result="shape"/>
</filter>
<filter id="filter1_d" x="140.09" y="0.206299" width="175.597" height="354.801" filterUnits="userSpaceOnUse" color-interpolation-filters="sRGB">
<feFlood flood-opacity="0" result="BackgroundImageFix"/>
<feColorMatrix in="SourceAlpha" type="matrix" values="0 0 0 0 0 0 0 0 0 0 0 0 0 0 0 0 0 0 127 0"/>
<feOffset/>
<feGaussianBlur stdDeviation="17"/>
<feColorMatrix type="matrix" values="0 0 0 0 0.219608 0 0 0 0 0.709804 0 0 0 0 0.988235 0 0 0 0.34 0"/>
<feBlend mode="normal" in2="BackgroundImageFix" result="effect1_dropShadow"/>
<feBlend mode="normal" in="SourceGraphic" in2="effect1_dropShadow" result="shape"/>
</filter>
</defs>
</svg>
