<svg width="24" height="24" viewBox="0 0 24 24" fill="none" xmlns="http://www.w3.org/2000/svg">
<path d="M19.973 3H23.6248C23.7242 3 23.8196 2.96049 23.8899 2.89016C23.9603 2.81984 23.9998 2.72446 23.9998 2.625C23.9998 2.52554 23.9603 2.43016 23.8899 2.35984C23.8196 2.28951 23.7242 2.25 23.6248 2.25H19.1248C19.0253 2.25 18.9299 2.28951 18.8596 2.35984C18.7893 2.43016 18.7498 2.52554 18.7498 2.625V7.125C18.7498 7.22446 18.7893 7.31984 18.8596 7.39017C18.9299 7.46049 19.0253 7.5 19.1248 7.5C19.2242 7.5 19.3196 7.46049 19.3899 7.39017C19.4603 7.31984 19.4998 7.22446 19.4998 7.125V3.58725L19.958 4.0455C22.0828 6.17025 23.2535 8.9955 23.2535 12C23.2535 15.0045 22.0828 17.8298 19.958 19.9545C18.4133 21.4988 16.4527 22.5604 14.3152 23.0098C12.1777 23.4593 9.95559 23.2772 7.91976 22.4858C7.82717 22.4497 7.72406 22.452 7.63313 22.492C7.5422 22.532 7.47089 22.6065 7.43489 22.6991C7.39888 22.7917 7.40114 22.8948 7.44115 22.9858C7.48117 23.0767 7.55567 23.148 7.64826 23.184C9.81965 24.0284 12.1898 24.2227 14.4697 23.7433C16.7497 23.2639 18.8408 22.1314 20.4883 20.484C22.7548 18.2183 24.0035 15.204 24.0035 11.9992C24.0035 8.7945 22.7548 5.781 20.4883 3.51525L19.973 3Z" fill="#F7941D"/>
<path d="M4.87493 16.5001C4.77547 16.5001 4.68009 16.5396 4.60976 16.6099C4.53944 16.6802 4.49993 16.7756 4.49993 16.8751V20.5051L3.96518 19.9703C1.84043 17.8456 0.669678 15.0203 0.669678 12.0158C0.669678 9.01132 1.84043 6.18532 3.96518 4.06057C5.4907 2.53948 7.41989 1.48704 9.52463 1.02771C11.6294 0.568376 13.8216 0.721359 15.8422 1.46857C15.934 1.49696 16.0331 1.48913 16.1193 1.44667C16.2055 1.40422 16.2721 1.33037 16.3055 1.2403C16.3389 1.15024 16.3366 1.05079 16.299 0.962403C16.2613 0.874015 16.1913 0.803399 16.1032 0.765066C13.9479 -0.0312898 11.6097 -0.19408 9.36485 0.295929C7.12 0.785938 5.06232 1.90827 3.43493 3.53032C1.16843 5.79607 -0.0803223 8.81032 -0.0803223 12.0151C-0.0803223 15.2198 1.16843 18.2341 3.43493 20.4998L3.93443 21.0001H0.374928C0.275472 21.0001 0.180089 21.0396 0.109763 21.1099C0.0394365 21.1802 -7.22706e-05 21.2756 -7.22706e-05 21.3751C-7.22706e-05 21.4745 0.0394365 21.5699 0.109763 21.6402C0.180089 21.7106 0.275472 21.7501 0.374928 21.7501H4.76693C4.79693 21.7576 5.04893 21.7313 5.12243 21.6578C5.12543 21.6548 5.12618 21.6511 5.12918 21.6481C5.16707 21.6134 5.19735 21.5712 5.21814 21.5242C5.23892 21.4772 5.24974 21.4264 5.24993 21.3751V16.8751C5.24993 16.7756 5.21042 16.6802 5.14009 16.6099C5.06977 16.5396 4.97438 16.5001 4.87493 16.5001Z" fill="#F7941D"/>
</svg>
