<svg id="Слой_1" data-name="Слой 1" xmlns="http://www.w3.org/2000/svg" viewBox="0 0 94.84 94.92"><defs><style>.cls-1{fill:#383838;}.cls-2{fill:#383838;}</style></defs><path class="cls-1" d="M92.68,40.56a4.74,4.74,0,0,0-4.75,4.74V83.23A4.74,4.74,0,0,1,83.19,88H16.81a4.74,4.74,0,0,1-4.74-4.74V16.85a4.74,4.74,0,0,1,4.74-4.74H54.74a4.75,4.75,0,0,0,0-9.49H16.81A14.24,14.24,0,0,0,2.58,16.85V83.23A14.24,14.24,0,0,0,16.81,97.46H83.19A14.24,14.24,0,0,0,97.42,83.23V45.3a4.74,4.74,0,0,0-4.74-4.74Zm0,0" transform="translate(-2.58 -2.54)"/><path class="cls-1" d="M32.8,53a1.77,1.77,0,0,0-.5.93l-2.58,12.9a1.83,1.83,0,0,0,.5,1.65,1.8,1.8,0,0,0,1.29.54,1.47,1.47,0,0,0,.36,0l12.9-2.58a1.8,1.8,0,0,0,.94-.5L80.59,31,67.68,18.14Zm0,0" transform="translate(-2.58 -2.54)"/><path class="cls-1" d="M93.51,5.21a9.14,9.14,0,0,0-12.91,0l-8,8.05L85.46,26.17l8.05-8.06a9.13,9.13,0,0,0,0-12.9Zm0,0" transform="translate(-2.58 -2.54)"/><path class="cls-2" d="M92.68,40.56a4.74,4.74,0,0,0-4.75,4.74V83.23A4.74,4.74,0,0,1,83.19,88H16.81a4.74,4.74,0,0,1-4.74-4.74V16.85a4.74,4.74,0,0,1,4.74-4.74H54.74a4.75,4.75,0,0,0,0-9.49H16.81A14.24,14.24,0,0,0,2.58,16.85V83.23A14.24,14.24,0,0,0,16.81,97.46H83.19A14.24,14.24,0,0,0,97.42,83.23V45.3a4.74,4.74,0,0,0-4.74-4.74Zm0,0" transform="translate(-2.58 -2.54)"/><path class="cls-2" d="M32.8,53a1.77,1.77,0,0,0-.5.93l-2.58,12.9a1.83,1.83,0,0,0,.5,1.65,1.8,1.8,0,0,0,1.29.54,1.47,1.47,0,0,0,.36,0l12.9-2.58a1.8,1.8,0,0,0,.94-.5L80.59,31,67.68,18.14Zm0,0" transform="translate(-2.58 -2.54)"/><path class="cls-2" d="M93.51,5.21a9.14,9.14,0,0,0-12.91,0l-8,8.05L85.46,26.17l8.05-8.06a9.13,9.13,0,0,0,0-12.9Zm0,0" transform="translate(-2.58 -2.54)"/></svg>