<svg width="32" height="32" viewBox="0 0 32 32" fill="none" xmlns="http://www.w3.org/2000/svg">
<path d="M4.41497 18.0347C3.58014 18.0347 2.93782 18.7829 3.16413 19.5864C4.74209 25.1893 9.91222 29.3281 15.9998 29.3281C23.3332 29.3281 29.3332 23.3281 29.3332 15.9974C29.3332 8.66675 23.3332 2.66675 15.9998 2.66675C13.9299 2.66654 11.8883 3.14838 10.0368 4.0741C8.18541 4.99982 6.57499 6.34398 5.33317 8.00008V3.99837C5.33317 3.26294 4.73698 2.66675 4.00155 2.66675C3.26634 2.66675 2.67025 3.26259 2.66993 3.9978L2.6665 12.0001H10.6665C11.4029 12.0001 11.9998 11.4031 11.9998 10.6667C11.9998 9.93037 11.4029 9.33342 10.6665 9.33342H7.73317C9.59984 6.93341 12.6692 5.33341 16.0025 5.33341C21.8665 5.33341 26.6665 10.1334 26.6665 15.9974C26.6665 21.8614 21.8665 26.6641 15.9998 26.6641C11.22 26.6641 7.15144 23.4778 5.80868 19.1217C5.61689 18.4996 5.06602 18.0347 4.41497 18.0347Z" fill="#B7B7B7"/>
<path d="M16.0028 9.33329C15.2664 9.33327 14.6694 9.93023 14.6694 10.6666V16.4L18.1418 21.0639C18.5802 21.6527 19.4133 21.7737 20.0011 21.3339C20.5902 20.8932 20.7082 20.0574 20.2643 19.4707L17.3361 15.6013V10.6666" fill="#B7B7B7"/>
<ellipse cx="16.0252" cy="10.65" rx="1.325" ry="1.35" fill="#B7B7B7"/>
</svg>
