<svg width="140" height="32" viewBox="0 0 140 32" fill="none" xmlns="http://www.w3.org/2000/svg">
<path d="M61.1172 16.1114V17.4354H56.1599V17.039C56.1599 14.6911 55.103 13.535 52.989 13.535C50.6081 13.535 49.452 15.0544 49.452 17.4684V26.5573H44.1313V9.37046H49.2511L49.452 11.6496L49.0199 12.7093C50.2447 10.2292 51.8632 8.875 54.8717 8.875C59.0033 8.875 61.1172 11.6193 61.1172 16.1114Z" fill="white"/>
<path d="M84.4892 9.37058H89.8098V26.5574H84.4892V9.37058ZM87.1316 1.53687C88.852 1.53687 89.975 2.76174 89.975 4.24811C89.975 5.80054 88.852 6.95661 87.1316 6.95661C85.414 6.95661 84.291 5.80054 84.291 4.24811C84.291 2.76174 85.414 1.53687 87.1316 1.53687Z" fill="white"/>
<path d="M95.78 26.7226C94.8881 26.7226 94.1945 26.4583 93.666 25.8968C92.609 24.804 92.609 22.9543 93.666 21.8643C94.1945 21.3028 94.8881 21.0386 95.78 21.0386C96.6718 21.0386 97.3682 21.3028 97.8967 21.8643C98.9536 22.9543 98.9536 24.804 97.8967 25.8968C97.3682 26.4583 96.6718 26.7226 95.78 26.7226Z" fill="#F7941D"/>
<path d="M118.755 16.1114V17.4354H113.798V17.039C113.798 14.6911 112.741 13.535 110.624 13.535C108.246 13.535 107.087 15.0544 107.087 17.4684V26.5573H101.769V9.37046H106.889L107.087 11.6496L106.658 12.7093C107.883 10.2292 109.501 8.875 112.51 8.875C116.641 8.875 118.755 11.6193 118.755 16.1114Z" fill="white"/>
<path d="M134.467 9.37061H139.821V26.5574H134.663L134.467 24.2756L134.96 23.0535C133.606 25.7317 131.392 27.0529 128.318 27.0529C123.559 27.0529 121.244 24.1765 121.244 19.1861V9.37061H126.567V18.1952C126.567 21.0056 127.822 22.3928 130.336 22.3928C133.077 22.3928 134.467 20.8074 134.467 18.1622" fill="white"/>
<path d="M21.0182 17.6116C21.7366 12.4011 26.4076 9.02648 31.8934 9.78068C37.3792 10.5349 40.9685 15.0435 40.2529 20.2541C39.5345 25.4646 34.8634 28.8392 29.3776 28.085C23.8918 27.3308 20.3025 22.8222 21.0182 17.6116Z" fill="white"/>
<path d="M33.2506 28.0079C34.4728 26.3482 35.0701 24.5122 34.6324 22.5304C34.4287 21.6083 34.0819 20.6532 33.5534 19.8824C32.4001 18.1979 31.8248 16.4335 31.9872 14.3774C32.1083 12.8772 32.034 11.3633 32.0478 9.83018C32.9947 9.91276 33.859 10.0531 34.7205 10.0366C35.1884 10.0256 35.7004 9.82743 36.1105 9.57695C38.0263 8.39611 39.8705 7.09416 41.822 5.98214C43.5864 4.97747 45.5022 4.3141 47.5803 4.28383C49.1548 4.26181 49.7714 4.82057 49.8402 6.38126C49.9035 7.74652 49.4823 9.00993 48.9731 10.2486C47.974 12.6818 46.5757 14.8673 44.5608 16.5711C43.4901 17.4767 42.2294 18.1594 41.0266 18.9603C41.1229 19.6099 41.3266 20.4192 41.3514 21.2367C41.4092 23.0671 40.6109 24.5535 39.0255 25.4123C37.1785 26.417 35.1912 27.1601 33.2809 28.0465C33.2617 28.0244 33.2672 28.0272 33.2506 28.0079Z" fill="#F7941D"/>
<path d="M46.8919 10.6421C47.7562 9.83287 48.07 7.61708 47.3901 6.70874C47.1919 6.44725 46.8121 6.22705 46.4845 6.1775C44.9101 5.92427 42.3117 7.61433 41.863 9.01537C42.5457 8.7759 43.2971 8.39605 44.0898 8.25842C45.9506 7.92812 46.9277 8.80618 46.8919 10.6421Z" fill="#F7941D"/>
<path d="M31.5139 9.68428C30.867 11.8615 30.3606 13.97 29.5926 15.9793C29.243 16.8904 28.4503 17.6776 27.7236 18.3878C26.719 19.3705 25.6592 20.2815 25.1417 21.644C24.5472 23.1992 24.4949 24.7709 25.0427 26.5215C24.7399 26.3234 24.5527 26.2215 24.3848 26.0921C23.2095 25.1728 21.9571 24.336 20.8863 23.3093C18.7311 21.2449 18.5026 19.0181 20.0248 16.4555C20.1486 16.2463 20.2753 16.0289 20.3689 15.8692C16.3557 12.3377 14.9216 7.85384 15.3785 2.72312C15.6207 0.0283862 16.8621 -0.574418 19.3559 0.51008C21.3818 1.39089 22.992 2.82771 24.4454 4.43795C25.4886 5.59952 26.4822 6.81339 27.3961 8.0768C27.9576 8.85577 28.6567 9.25213 29.5513 9.39802C30.1596 9.49711 30.7734 9.57968 31.5139 9.68428Z" fill="#F7941D"/>
<path d="M22.4106 6.21886C21.8381 4.39944 20.872 2.97913 19.0828 2.2387C18.5626 2.02125 18.0534 2.02675 17.6075 2.43413C16.7624 3.21034 16.4514 5.23345 17.0184 6.26566C17.5524 4.53706 18.7278 3.99481 20.3903 4.81232C21.0949 5.15914 21.695 5.7124 22.4106 6.21886Z" fill="#F7941D"/>
<path d="M46.8919 10.6421C46.9277 8.80618 45.9506 7.92812 44.0898 8.25842C43.2971 8.39605 42.5457 8.7759 41.863 9.01537C42.3117 7.61433 44.9101 5.92427 46.4845 6.1775C46.8121 6.22705 47.1919 6.44725 47.3901 6.70874C48.07 7.61708 47.7562 9.83287 46.8919 10.6421Z" fill="white"/>
<path d="M22.4106 6.21886C21.695 5.7124 21.0949 5.15914 20.3903 4.81232C18.7278 3.99481 17.5524 4.53706 17.0184 6.26566C16.4514 5.23345 16.7624 3.21034 17.6075 2.43413C18.0534 2.02675 18.5626 2.02125 19.0828 2.2387C20.872 2.97913 21.8381 4.39944 22.4106 6.21886Z" fill="white"/>
<path d="M31.3734 14.4875C31.7285 14.5673 31.8138 14.9086 31.8331 15.0738C31.8441 15.1564 31.8523 15.2389 31.8688 15.3188C32.7331 19.7531 34.8003 19.665 35.5297 19.7613C36.2591 19.8577 37.4978 20.0476 38.4914 19.3953C39.3668 18.82 40.0714 16.3042 40.2283 15.7014C40.2503 15.6215 40.3136 15.561 40.3962 15.5417L40.4237 15.5334C40.5283 15.5087 40.6081 15.4206 40.6247 15.3132L40.7485 14.4655C40.765 14.3416 40.6962 14.2232 40.5779 14.1792C40.0274 13.97 38.4116 13.3892 36.9115 13.2323C35.0673 13.0397 33.3745 13.147 32.5542 13.2488C32.1028 13.3424 31.4395 13.2186 31.4395 13.2186L31.3624 13.2048C31.3624 13.2048 30.6908 13.136 30.2861 12.9213C29.5292 12.5882 27.9355 12.0047 26.1133 11.6661C24.6297 11.3909 22.9176 11.4872 22.3286 11.5313C22.2047 11.5395 22.1029 11.6359 22.0863 11.757L21.9625 12.6075C21.9487 12.7121 21.9983 12.8194 22.0918 12.8745L22.1166 12.8883C22.1909 12.9296 22.2322 13.0066 22.2322 13.0892C22.213 13.7113 22.1717 16.3262 22.846 17.1244C23.614 18.0328 24.8581 18.2007 25.5821 18.3163C26.3087 18.4319 28.2685 19.1062 30.355 15.1013C30.3935 15.027 30.4265 14.9527 30.4568 14.8756C30.5229 14.7215 30.7045 14.4159 31.0679 14.4407" fill="black"/>
<path d="M32.593 25.6987C32.3288 26.6704 32.0095 27.6172 31.3764 28.4292C31.0819 28.8118 30.7268 29.1201 30.3249 29.3706C29.5432 29.855 28.5495 29.6899 27.911 29.0018C27.0274 28.0604 26.7411 26.8933 26.62 25.6602C26.6035 25.4648 26.598 25.2666 26.5842 25.0684C27.4705 25.3161 28.3293 25.1427 29.1799 24.8867C29.2982 25.5363 29.1991 26.2189 29.4386 26.9181C29.7827 26.2657 29.8542 25.5941 30.0937 24.9803C30.8727 25.4042 31.6709 25.7648 32.593 25.6987Z" fill="#ED847E"/>
<path d="M32.593 25.6984C31.6709 25.7645 30.8727 25.4039 30.0937 24.98C29.8047 24.7791 29.5019 24.746 29.1799 24.8864C28.3293 25.1424 27.4705 25.3158 26.5842 25.0681C25.0456 24.5919 24.3739 23.4055 24.0464 21.944C23.9858 21.6797 24.0546 21.4485 24.3629 21.3852C24.6575 21.3274 24.8199 21.476 24.9052 21.7458C25.0153 22.0926 25.1171 22.4477 25.2603 22.778C25.7557 23.9313 26.9613 24.5341 28.1835 24.2533C28.3183 24.2231 28.4532 24.1955 28.5798 24.1432C29.3753 23.8184 30.113 23.9093 30.8341 24.3772C32.0095 25.1424 33.7216 25.013 34.6684 23.2789C34.7565 23.1193 34.8391 22.9569 34.9244 22.7945C35.0593 22.544 35.2547 22.4367 35.5272 22.555C35.819 22.6789 35.8355 22.9211 35.7226 23.1661C35.1006 24.5258 34.1977 25.5498 32.593 25.6984Z" fill="black"/>
<path d="M30.2008 19.9235C30.9385 19.9923 31.6459 20.1657 32.268 20.5814C32.9258 21.0218 32.9479 21.5338 32.3561 22.054C31.0596 23.188 28.5548 22.9155 27.5501 21.5283C27.1015 20.9062 27.2253 20.4327 27.941 20.141C28.6677 19.8409 29.4301 19.8272 30.2008 19.9235Z" fill="black"/>
<path d="M29.1794 24.8864C29.5015 24.7488 29.8043 24.7791 30.0933 24.98C29.8538 25.5938 29.7795 26.2654 29.4382 26.9178C29.1987 26.2186 29.2978 25.536 29.1794 24.8864Z" fill="black"/>
<path d="M20.4238 26.5574H14.1783L9.65039 21.0386L5.02338 26.5574H0V3.09204H5.32065V16.2464L5.22156 19.4834H5.35368L7.79793 16.3125L13.2507 9.37057H19.4329L12.7552 17.3364" fill="white"/>
<path d="M72.2736 21.6111C73.5508 21.6001 74.5637 21.1982 75.3096 20.4385C76.0583 19.6788 76.4079 18.6906 76.3996 17.4795C76.3886 16.2684 76.0198 15.2885 75.2601 14.5398C74.4976 13.7939 73.4792 13.4113 72.202 13.4195C70.9249 13.4333 69.8789 13.8352 69.133 14.5949C68.387 15.3546 68.0347 16.34 68.0457 17.5511C68.0567 18.7649 68.4256 19.7448 69.1825 20.4908C69.9422 21.2395 70.9964 21.6221 72.2736 21.6111ZM65.373 30.5485L65.3427 26.9455C67.0851 27.6832 68.9871 28.0603 71.0515 28.041C74.7867 28.008 76.6419 26.717 76.6198 24.1929L76.6171 23.8654L76.7079 23.0479C75.7418 24.8233 73.8178 25.7261 70.9661 25.7509C68.4778 25.7701 66.5043 25.0352 65.0509 23.5406C63.5976 22.046 62.8572 20.0531 62.8379 17.5979C62.8159 15.1399 63.5178 13.103 64.9794 11.5175C66.4382 9.89903 68.365 9.09529 70.79 9.07602C73.5755 9.05125 75.7143 10.378 77.2447 13.0507L76.3143 11.3551L76.4602 9.48615L81.5717 9.44211L81.6983 23.9838C81.723 26.9675 80.4954 29.1723 78.5081 30.3366C76.5208 31.5009 74.3297 31.9771 71.7066 31.9991C68.8577 32.0239 66.7575 31.5505 65.373 30.5485Z" fill="white"/>
</svg>
