<svg width="28" height="30" viewBox="0 0 28 30" fill="none" xmlns="http://www.w3.org/2000/svg">
<path d="M13.9999 0C9.85261 0 6.47852 3.48709 6.47852 7.77328C6.47852 12.0595 9.85261 15.5466 13.9999 15.5466C18.1472 15.5466 21.5213 12.0595 21.5213 7.77328C21.5213 3.48709 18.1472 0 13.9999 0ZM13.9999 12.4372C11.5118 12.4372 9.48707 10.3447 9.48707 7.77328C9.48707 5.20188 11.5118 3.10931 13.9999 3.10931C16.488 3.10931 18.5127 5.20188 18.5127 7.77328C18.5127 10.3447 16.488 12.4372 13.9999 12.4372ZM26.0341 29.5385C26.8649 29.5385 27.5383 28.865 27.5383 28.0342V27.9838C27.5383 21.9844 22.8134 17.1012 17.0084 17.1012H10.9913C5.18484 17.1012 0.461426 21.9844 0.461426 27.9838V28.0342C0.461426 28.865 1.13491 29.5385 1.9657 29.5385C2.79649 29.5385 3.46997 28.865 3.46997 28.0342V27.9838C3.46997 23.6976 6.84406 20.2105 10.9913 20.2105H17.0084C21.1557 20.2105 24.5298 23.6976 24.5298 27.9838V28.0342C24.5298 28.865 25.2033 29.5385 26.0341 29.5385Z" fill="#B7B7B7"/>
</svg>
