<svg width="32" height="32" viewBox="0 0 32 32" fill="none" xmlns="http://www.w3.org/2000/svg">
<path d="M25.788 2.66675C26.7756 2.66675 27.5762 3.46733 27.5762 4.45489L27.5762 20.8786C27.5762 21.8662 26.7756 22.6667 25.788 22.6667C24.8005 22.6667 23.9999 21.8662 23.9999 20.8786L23.9999 4.45489C23.9999 3.46733 24.8005 2.66675 25.788 2.66675ZM15.6666 7.66675C16.5871 7.66675 17.3333 8.41297 17.3333 9.33347L17.3333 21C17.3333 21.9205 16.5871 22.6667 15.6666 22.6667C14.7461 22.6667 13.9999 21.9205 13.9999 21L13.9999 9.33347C13.9999 8.41297 14.7461 7.66675 15.6666 7.66675ZM5.66661 13.9167C6.58711 13.9167 7.33333 14.663 7.33333 15.5835L7.33333 21C7.33333 21.9205 6.58711 22.6667 5.66661 22.6667C4.7461 22.6667 3.99988 21.9205 3.99988 21L3.99988 15.5835C3.99988 14.663 4.7461 13.9167 5.66661 13.9167Z" fill="#B7B7B7"/>
<path d="M29.0002 26.6667L3.00016 26.6667C2.07969 26.6667 1.3335 27.4129 1.3335 28.3334C1.3335 29.2539 2.07969 30.0001 3.00016 30.0001L29.0002 30.0001C29.9206 30.0001 30.6668 29.2539 30.6668 28.3334C30.6668 27.4129 29.9206 26.6667 29.0002 26.6667Z" fill="#B7B7B7"/>
</svg>
