<svg width="32" height="32" viewBox="0 0 32 32" fill="none" xmlns="http://www.w3.org/2000/svg">
<path d="M16.0002 9.23325C12.2306 9.23325 9.2335 12.2304 9.2335 15.9999C9.2335 19.7694 12.2306 22.7666 16.0002 22.7666C19.7697 22.7666 22.7668 19.7694 22.7668 15.9999C22.7668 12.2304 19.7697 9.23325 16.0002 9.23325ZM16.0002 20.6618C13.3887 20.6618 11.3383 18.6114 11.3383 15.9999C11.3383 13.3885 13.3887 11.338 16.0002 11.338C18.6116 11.338 20.6621 13.3885 20.6621 15.9999C20.6621 18.6114 18.6116 20.6618 16.0002 20.6618Z" fill="#B7B7B7" stroke="#B7B7B7" stroke-width="0.2"/>
<path d="M28.888 7.74741L28.8881 7.74743L28.8894 7.74472C29.2077 7.10827 29.1027 6.26131 28.5707 5.72929L26.1707 3.32929C25.6387 2.79727 24.7917 2.69233 24.1553 3.01056L24.1553 3.01052L24.1526 3.01195L21.5937 4.38979L20.1808 3.82462L19.2952 1.0694L19.2949 1.06838C19.0827 0.431759 18.4473 -0.1 17.7 -0.1H14.3C13.5548 -0.1 12.9132 0.43082 12.8022 1.17734L11.9233 3.91179C11.3556 4.01376 10.8742 4.20539 10.3976 4.48514L7.84741 3.11195L7.84743 3.11191L7.84472 3.11056C7.20827 2.79233 6.36131 2.89727 5.82929 3.42929L3.42929 5.82929C2.89727 6.36131 2.79233 7.20827 3.11056 7.84472L3.11055 7.84473L3.11128 7.84614L4.39017 10.3055C4.29526 10.5454 4.20049 10.806 4.10634 11.065L4.10602 11.0658C4.01173 11.3251 3.91804 11.5827 3.82451 11.8192L1.0694 12.7048L1.06838 12.7051C0.431759 12.9173 -0.1 13.5527 -0.1 14.3V17.7C-0.1 18.4497 0.43446 19.0846 1.17095 19.2957L3.92462 20.1808L4.48979 21.5937L3.11195 24.1526L3.11191 24.1526L3.11056 24.1553C2.79233 24.7917 2.89727 25.6387 3.42929 26.1707L5.82929 28.5707C6.36131 29.1027 7.20827 29.2077 7.84472 28.8894L7.84474 28.8895L7.84741 28.888L10.4063 27.5102L11.8186 28.0751L12.7045 30.9296L12.7045 30.9296L12.7051 30.9316C12.9173 31.5682 13.5527 32.1 14.3 32.1H17.7C18.4473 32.1 19.0827 31.5682 19.2949 30.9316L19.2955 30.9296L20.1814 28.0752L21.5937 27.5102L24.1526 28.888L24.1526 28.8881L24.1553 28.8894C24.7917 29.2077 25.6387 29.1027 26.1707 28.5707L28.5707 26.1707C29.1027 25.6387 29.2077 24.7917 28.8894 24.1553L28.8895 24.1553L28.888 24.1526L27.5102 21.5937L28.0752 20.1814L30.9296 19.2955L30.9296 19.2955L30.9316 19.2949C31.5682 19.0827 32.1 18.4473 32.1 17.7V14.3C32.1 13.5575 31.5727 12.8176 30.8291 12.6043L28.0754 11.7192L27.5102 10.3063L28.888 7.74741ZM26.3708 18.4044L26.3137 18.4218L26.3019 18.4804L26.204 18.9702L25.3108 21.0544L25.0143 21.5486L24.9848 21.5976L25.0122 21.6479L26.7764 24.8822L24.8822 26.7764L21.6479 25.0122L21.5976 24.9848L21.5486 25.0143L21.0504 25.3132C21.0501 25.3133 21.0498 25.3135 21.0495 25.3137C20.3573 25.7091 19.6663 26.0053 18.9764 26.2027L18.4804 26.3019L18.4218 26.3137L18.4044 26.3708L17.326 29.9H14.674L13.5956 26.3708L13.5782 26.3137L13.5196 26.3019L13.0298 26.204L10.9456 25.3108L10.4514 25.0143L10.4024 24.9848L10.3521 25.0122L7.1178 26.7764L5.22362 24.8822L6.98779 21.6479L7.0152 21.5976L6.98575 21.5486L6.68682 21.0504C6.68665 21.0501 6.68648 21.0498 6.68631 21.0495C6.29088 20.3573 5.99475 19.6663 5.79726 18.9764L5.69806 18.4804L5.68634 18.4218L5.62922 18.4044L2.1 17.326V14.6748L5.42822 13.6959L5.47481 13.6822L5.49285 13.6371L5.69285 13.1371L5.69371 13.1375L5.69701 13.1243C5.89438 12.3348 6.19039 11.6435 6.5863 10.9505L6.88575 10.4514L6.9144 10.4037L6.8889 10.3542L5.22233 7.1191L7.11708 5.22434L10.251 6.98716L10.3016 7.01565L10.3514 6.98575L10.8505 6.6863C11.5435 6.29039 12.2348 5.99438 13.0243 5.79701L13.0245 5.79791L13.0371 5.79285L13.5371 5.59285L13.5812 5.57523L13.5954 5.52998L14.6734 2.1H17.3266L18.4046 5.52998L18.4188 5.57523L18.4629 5.59285L18.9629 5.79285L18.9627 5.79333L18.9725 5.79615C19.6637 5.99364 20.356 6.29014 21.0495 6.68631C21.0498 6.68648 21.0501 6.68665 21.0504 6.68682L21.5486 6.98575L21.5976 7.0152L21.6479 6.98779L24.8822 5.22362L26.7764 7.1178L25.0122 10.3521L24.9848 10.4024L25.0143 10.4514L25.3132 10.9496C25.3133 10.9499 25.3135 10.9502 25.3137 10.9505C25.7091 11.6427 26.0053 12.3337 26.2027 13.0236L26.3019 13.5196L26.3137 13.5782L26.3708 13.5956L29.9 14.674V17.326L26.3708 18.4044Z" fill="#B7B7B7" stroke="#B7B7B7" stroke-width="0.2"/>
</svg>
