<svg width="32" height="33" viewBox="0 0 32 33" fill="none" xmlns="http://www.w3.org/2000/svg">
<g clip-path="url(#clip0)">
<path d="M19.0625 16.3191C19.0625 18.0105 17.6914 19.3816 16 19.3816C14.3086 19.3816 12.9375 18.0105 12.9375 16.3191C12.9375 14.6277 14.3086 13.2566 16 13.2566C17.6914 13.2566 19.0625 14.6277 19.0625 16.3191Z" fill="white"/>
<path d="M23.1621 10.9006C23.0149 10.5017 22.78 10.1406 22.4749 9.84424C22.1785 9.53906 21.8176 9.3042 21.4185 9.15698C21.0947 9.03125 20.6084 8.88159 19.7126 8.84082C18.7437 8.79663 18.4531 8.78711 16 8.78711C13.5466 8.78711 13.2561 8.79639 12.2874 8.84058C11.3916 8.88159 10.905 9.03125 10.5815 9.15698C10.1824 9.3042 9.82129 9.53906 9.52515 9.84424C9.21997 10.1406 8.98511 10.5015 8.83765 10.9006C8.71191 11.2244 8.56226 11.7109 8.52148 12.6067C8.47729 13.5754 8.46777 13.866 8.46777 16.3193C8.46777 18.7725 8.47729 19.063 8.52148 20.032C8.56226 20.9277 8.71191 21.4141 8.83765 21.7378C8.98511 22.137 9.21973 22.4978 9.5249 22.7942C9.82129 23.0994 10.1821 23.3342 10.5813 23.4814C10.905 23.6074 11.3916 23.7571 12.2874 23.7979C13.2561 23.842 13.5464 23.8513 15.9998 23.8513C18.4534 23.8513 18.7439 23.842 19.7124 23.7979C20.6082 23.7571 21.0947 23.6074 21.4185 23.4814C22.2197 23.1724 22.853 22.5391 23.1621 21.7378C23.2878 21.4141 23.4375 20.9277 23.4785 20.032C23.5227 19.063 23.532 18.7725 23.532 16.3193C23.532 13.866 23.5227 13.5754 23.4785 12.6067C23.4377 11.7109 23.2881 11.2244 23.1621 10.9006ZM16 21.0369C13.3943 21.0369 11.282 18.9248 11.282 16.3191C11.282 13.7134 13.3943 11.6013 16 11.6013C18.6055 11.6013 20.7178 13.7134 20.7178 16.3191C20.7178 18.9248 18.6055 21.0369 16 21.0369ZM20.9043 12.5173C20.2954 12.5173 19.8018 12.0237 19.8018 11.4148C19.8018 10.8059 20.2954 10.3123 20.9043 10.3123C21.5132 10.3123 22.0068 10.8059 22.0068 11.4148C22.0066 12.0237 21.5132 12.5173 20.9043 12.5173Z" fill="white"/>
<path d="M16 0.319092C7.16479 0.319092 0 7.48389 0 16.3191C0 25.1543 7.16479 32.3191 16 32.3191C24.8352 32.3191 32 25.1543 32 16.3191C32 7.48389 24.8352 0.319092 16 0.319092ZM25.1321 20.1069C25.0876 21.085 24.9321 21.7527 24.7051 22.3372C24.2278 23.5713 23.2522 24.5469 22.0181 25.0242C21.4338 25.2512 20.7659 25.4065 19.7881 25.4512C18.8083 25.4958 18.4954 25.5066 16.0002 25.5066C13.5049 25.5066 13.1921 25.4958 12.2122 25.4512C11.2344 25.4065 10.5664 25.2512 9.98218 25.0242C9.3689 24.7935 8.81372 24.4319 8.35474 23.9644C7.88745 23.5056 7.52588 22.9502 7.29517 22.3372C7.06812 21.7529 6.9126 21.085 6.86816 20.1072C6.823 19.1272 6.8125 18.8142 6.8125 16.3191C6.8125 13.824 6.823 13.511 6.86792 12.5312C6.91235 11.5532 7.06763 10.8855 7.29468 10.301C7.52539 9.68799 7.88721 9.13257 8.35474 8.67383C8.81348 8.2063 9.3689 7.84473 9.98193 7.61401C10.5664 7.38696 11.2341 7.23169 12.2122 7.18701C13.1919 7.14233 13.5049 7.13159 16 7.13159C18.4951 7.13159 18.8081 7.14233 19.7878 7.18726C20.7659 7.23169 21.4336 7.38696 22.0181 7.61377C22.6311 7.84448 23.1865 8.2063 23.6455 8.67383C24.1128 9.13281 24.4746 9.68799 24.7051 10.301C24.9324 10.8855 25.0876 11.5532 25.1323 12.5312C25.177 13.511 25.1875 13.824 25.1875 16.3191C25.1875 18.8142 25.177 19.1272 25.1321 20.1069Z" fill="white"/>
</g>
<defs>
<clipPath id="clip0">
<rect width="32" height="32" fill="white" transform="translate(0 0.319092)"/>
</clipPath>
</defs>
</svg>
