<svg width="32" height="33" viewBox="0 0 32 33" fill="none" xmlns="http://www.w3.org/2000/svg">
<path fill-rule="evenodd" clip-rule="evenodd" d="M16 0.319092C7.16344 0.319092 0 7.48254 0 16.3191C0 25.1556 7.16344 32.3191 16 32.3191C24.8366 32.3191 32 25.1556 32 16.3191C32 7.48254 24.8366 0.319092 16 0.319092ZM23.9893 18.023C24.7239 18.7396 25.5007 19.4144 26.16 20.2066C26.4513 20.5567 26.7269 20.9179 26.9369 21.3235C27.235 21.9047 26.9648 22.5415 26.4456 22.5766L23.2193 22.5752C22.3865 22.6436 21.7229 22.3079 21.1632 21.7381C20.7181 21.2845 20.3021 20.799 19.8725 20.3299C19.6977 20.1368 19.5128 19.9562 19.293 19.8122C18.8523 19.5265 18.47 19.6133 18.2181 20.0723C17.9618 20.5399 17.9016 21.0591 17.878 21.5798C17.8429 22.3399 17.6136 22.5387 16.8507 22.5753C15.2185 22.6509 13.6705 22.4029 12.2329 21.5812C10.9633 20.8563 9.98084 19.8315 9.12549 18.6727C7.45853 16.4134 6.18184 13.9331 5.03553 11.3814C4.77644 10.8063 4.9657 10.4981 5.5981 10.487C6.65234 10.4662 7.70616 10.4687 8.75893 10.4856C9.18717 10.4928 9.4713 10.7375 9.63509 11.1421C10.2048 12.542 10.9017 13.8744 11.7765 15.1105C12.0105 15.4395 12.2484 15.767 12.5856 15.9992C12.9593 16.2569 13.2449 16.1727 13.4212 15.7541C13.5333 15.4883 13.5824 15.2056 13.606 14.9214C13.6899 13.9485 13.6999 12.9746 13.5556 12.0046C13.466 11.3983 13.1231 11.0062 12.5185 10.8916C12.2104 10.8328 12.2566 10.7196 12.405 10.5429C12.6655 10.2394 12.9106 10.0502 13.3961 10.0502H15.6882C16.589 10.0502 17.704 10.1068 17.8247 10.9994L17.8276 15.0518C17.8208 15.2757 17.9398 15.939 18.3414 16.0859C18.6632 16.1923 18.8775 15.9332 19.0706 15.729C19.9439 14.8023 20.567 13.7066 21.1238 12.5728C21.3703 12.0743 21.5832 11.5566 21.7903 11.0384C21.9429 10.655 22.1809 10.4661 22.6134 10.4729L26.124 10.4772C26.2275 10.4772 26.334 10.4772 26.4361 10.494C27.0266 10.5962 27.189 10.851 27.0055 11.4289C26.7188 12.3344 26.1573 13.0905 25.6101 13.8476C25.0235 14.6582 24.3993 15.4404 23.8171 16.2552C23.2852 17.0014 23.3272 17.3765 23.9893 18.023Z" fill="white"/>
</svg>
