<svg width="32" height="33" viewBox="0 0 32 33" fill="none" xmlns="http://www.w3.org/2000/svg">
<g clip-path="url(#clip0)">
<path d="M14.0713 23.9894C14.0713 24.0288 14.0713 24.0779 14.0496 24.1053C13.9021 24.2956 13.7266 24.4543 13.4962 24.5385C13.2961 24.6116 13.1367 24.5224 13.0946 24.3145C13.0778 24.2324 13.077 24.146 13.077 24.0618C13.0763 22.5135 13.0721 19.339 13.07 19.3004H11.9276C11.9276 19.3432 11.9262 23.7654 11.929 24.601C11.9297 24.8271 11.9536 25.0518 12.0477 25.2618C12.1488 25.4893 12.3166 25.6332 12.5666 25.6746C12.7498 25.7062 12.9289 25.6859 13.103 25.6262C13.4597 25.5033 13.7392 25.2716 13.9857 24.9935C14.0074 24.969 14.0306 24.9451 14.072 24.9009V25.5946H15.2173V22.5591C15.2173 21.5073 15.2173 19.2905 15.2173 19.2905L14.0713 19.2933V23.9894Z" fill="white"/>
<path d="M19.4859 19.7926C19.2444 19.2779 18.7367 19.1417 18.2964 19.2519C18.0296 19.3193 17.8133 19.4731 17.6357 19.6718C17.5767 19.7385 17.5121 19.8677 17.5121 19.8677C17.5121 19.8677 17.5121 17.967 17.5121 17.0583H16.3647V25.5932H17.5121V25.1143C17.5121 25.1143 17.5935 25.2007 17.623 25.2323C17.8864 25.5181 18.2058 25.6747 18.5998 25.6782C19.0843 25.6831 19.4213 25.4486 19.5744 24.9879C19.6453 24.7738 19.6685 24.5533 19.6692 24.33C19.6706 23.137 19.6706 21.944 19.6685 20.7511C19.6685 20.421 19.6284 20.0967 19.4859 19.7926ZM18.4874 24.1875C18.4874 24.2514 18.4797 24.316 18.4664 24.3785C18.4137 24.6285 18.2234 24.7409 17.9538 24.6854C17.7902 24.6517 17.6624 24.5576 17.5528 24.4389C17.5479 24.4333 17.5156 24.3898 17.5156 24.3898V24.2964L17.5128 20.5068C17.5128 20.5068 17.5374 20.4366 17.5914 20.3895C17.7263 20.2701 17.8751 20.195 18.0612 20.2133C18.2199 20.2287 18.3463 20.3017 18.4053 20.4485C18.4495 20.5601 18.4846 20.6844 18.4853 20.8038C18.4909 21.9314 18.4888 23.0591 18.4874 24.1875Z" fill="white"/>
<path d="M15.3601 12.3535C15.6277 12.3535 15.8453 12.1359 15.8453 11.8684V8.44521C15.8453 8.17769 15.6276 7.96008 15.3601 7.96008C15.0927 7.96008 14.875 8.17776 14.875 8.44521V11.8684C14.8749 12.1358 15.0926 12.3535 15.3601 12.3535Z" fill="white"/>
<path d="M11.9304 17.0591H7.95618V18.2822H9.29521V25.5939H10.5886V18.2794H11.9304V17.0591Z" fill="white"/>
<path d="M22.7635 23.356V24.1656C22.7635 24.4486 22.5346 24.6775 22.2523 24.6775C21.9693 24.6775 21.7404 24.4486 21.7404 24.1656V22.5907H23.9375C23.9375 22.5907 23.9502 21.4918 23.941 20.9932C23.9375 20.7805 23.9214 20.5649 23.8778 20.3571C23.7641 19.8178 23.4741 19.4113 22.9313 19.2329C22.7719 19.1802 22.6006 19.1529 22.4328 19.1423C21.8745 19.1065 21.3858 19.2659 21.0038 19.6935C20.6689 20.0678 20.5524 20.5186 20.5517 21.0073C20.5495 21.9419 20.5453 22.8772 20.5545 23.8117C20.5573 24.0498 20.584 24.2927 20.638 24.5244C20.7546 25.0223 21.0263 25.4134 21.5059 25.6297C21.8563 25.7883 22.2263 25.7961 22.5999 25.7413C23.2023 25.6528 23.6131 25.3298 23.8118 24.7477C23.9614 24.3117 23.9438 23.356 23.9438 23.356H22.7635ZM21.7404 20.73C21.7404 20.4477 21.9693 20.2181 22.2523 20.2181C22.5346 20.2181 22.7635 20.4477 22.7635 20.73V21.614H21.7404V20.73Z" fill="white"/>
<path d="M16 0.319092C7.16344 0.319092 0 7.48254 0 16.3191C0 25.1556 7.16344 32.3191 16 32.3191C24.8366 32.3191 32 25.1556 32 16.3191C32 7.48254 24.8366 0.319092 16 0.319092ZM18.0271 6.98899H19.1924V11.8214C19.1924 11.8854 19.1976 11.9502 19.2088 12.0129C19.2441 12.2121 19.3914 12.3058 19.5831 12.2393C19.8169 12.1584 19.9953 11.9966 20.1466 11.8059C20.168 11.7786 20.1641 11.7278 20.1641 11.6878V6.98899H21.3379L21.3376 13.3256H20.1635L20.1649 12.6449C20.035 12.7728 19.9242 12.8922 19.8025 12.9995C19.5866 13.1896 19.3421 13.3314 19.0562 13.3874C18.6171 13.4732 18.2431 13.3344 18.1031 12.8797C18.0565 12.7282 18.0283 12.565 18.0271 12.4069V6.98899ZM15.3602 6.83037C16.2887 6.83037 17.0414 7.5831 17.0414 8.51164V11.8019C17.0414 12.7305 16.2887 13.4832 15.3602 13.4832C14.4316 13.4832 13.6789 12.7305 13.6789 11.8019V8.51164C13.6788 7.5831 14.4315 6.83037 15.3602 6.83037ZM10.8375 4.74767C10.8375 4.74767 11.3715 7.01574 11.6264 8.09013H11.6268C11.8817 7.01574 12.4157 4.74767 12.4157 4.74767H13.7518C13.7518 4.74767 12.7253 8.15227 12.2662 9.67064C12.2496 9.72548 12.2421 9.78517 12.2421 9.84268L12.2427 13.3243H11.0106L11.0111 9.84268C11.0111 9.78517 11.0035 9.72555 10.987 9.67064C10.5279 8.15227 9.50132 4.74767 9.50132 4.74767H10.8375ZM25.5294 24.9557C25.5294 26.5131 24.2851 27.7855 22.7284 27.8185C18.2437 27.9147 13.7568 27.9147 9.27136 27.8185C7.71536 27.7855 6.47112 26.5131 6.47112 24.9557V17.9509C6.47112 16.3942 7.71536 15.1219 9.27136 15.0889C13.7568 14.9927 18.2437 14.9927 22.7284 15.0889C24.2851 15.1219 25.5294 16.3942 25.5294 17.9509V24.9557Z" fill="white"/>
</g>
<defs>
<clipPath id="clip0">
<rect width="32" height="32" fill="white" transform="translate(0 0.319092)"/>
</clipPath>
</defs>
</svg>
