<svg width="32" height="33" viewBox="0 0 32 33" fill="none" xmlns="http://www.w3.org/2000/svg">
<path d="M16 0.319092C7.16479 0.319092 0 7.48389 0 16.3191C0 25.1543 7.16479 32.3191 16 32.3191C24.8352 32.3191 32 25.1543 32 16.3191C32 7.48389 24.8352 0.319092 16 0.319092ZM23.3054 12.7942C23.3125 12.9517 23.3159 13.1099 23.3159 13.2688C23.3159 18.1216 19.6221 23.7175 12.8669 23.7178H12.8672H12.8669C10.793 23.7178 8.86304 23.1099 7.23779 22.0681C7.52515 22.1021 7.81763 22.1189 8.11377 22.1189C9.83447 22.1189 11.418 21.532 12.675 20.5469C11.0674 20.5171 9.71191 19.4553 9.24414 17.9961C9.46802 18.0391 9.69824 18.0625 9.93433 18.0625C10.2695 18.0625 10.5942 18.0173 10.9028 17.9331C9.22241 17.5967 7.95654 16.1116 7.95654 14.3333C7.95654 14.3167 7.95654 14.3018 7.95703 14.2864C8.4519 14.5615 9.01782 14.7271 9.62036 14.7456C8.63428 14.0876 7.98608 12.9629 7.98608 11.6887C7.98608 11.0159 8.16797 10.3855 8.4834 9.84277C10.2944 12.0649 13.001 13.5264 16.0532 13.6799C15.9902 13.4109 15.9578 13.1306 15.9578 12.8425C15.9578 10.8152 17.6025 9.17041 19.6306 9.17041C20.687 9.17041 21.6411 9.61694 22.3113 10.3308C23.1479 10.1658 23.9336 9.86011 24.6433 9.43945C24.3687 10.2966 23.7866 11.0159 23.0283 11.4707C23.7712 11.3818 24.4792 11.1848 25.1372 10.8923C24.6458 11.6289 24.0225 12.2759 23.3054 12.7942Z" fill="white"/>
</svg>
