<svg width="32" height="33" viewBox="0 0 32 33" fill="none" xmlns="http://www.w3.org/2000/svg">
<path d="M32 16.3191C32 7.48389 24.8352 0.319092 16 0.319092C7.16479 0.319092 0 7.48389 0 16.3191C0 25.1543 7.16479 32.3191 16 32.3191C16.094 32.3191 16.1875 32.3171 16.2812 32.3154V19.8601H12.8438V15.854H16.2812V12.906C16.2812 9.48706 18.3684 7.62622 21.4182 7.62622C22.8787 7.62622 24.134 7.73511 24.5 7.78369V11.3569H22.397C20.7378 11.3569 20.4165 12.1455 20.4165 13.3025V15.854H24.3838L23.8667 19.8601H20.4165V31.7009C27.1042 29.7837 32 23.6223 32 16.3191Z" fill="white"/>
</svg>
