<svg width="17" height="76" viewBox="0 0 17 76" fill="none" xmlns="http://www.w3.org/2000/svg">
<path d="M14.7895 52.0951H2.15789L0.368421 0H16.5789L14.7895 52.0951ZM8.47368 60.2527C11.0351 60.2527 13.0877 60.9928 14.6316 62.4728C16.2105 63.9529 17 65.846 17 68.1522C17 70.4239 16.2105 72.2998 14.6316 73.7799C13.0877 75.26 11.0351 76 8.47368 76C5.94737 76 3.89474 75.26 2.31579 73.7799C0.77193 72.2998 0 70.4239 0 68.1522C0 65.8804 0.77193 64.0045 2.31579 62.5245C3.89474 61.01 5.94737 60.2527 8.47368 60.2527Z" fill="#F7941D"/>
</svg>
